<svg id="carpet" xmlns="http://www.w3.org/2000/svg" width="60" height="60" viewBox="0 0 60 60">
  <g id="Group_9" data-name="Group 9">
    <path id="Path_4" data-name="Path 4" d="M58.75,12.5h-12.1a11.749,11.749,0,0,0-.279-3.406A11.8,11.8,0,0,0,38.623.723L38.279.608A12.184,12.184,0,0,0,34.329,0a11.845,11.845,0,0,0-9.763,5.132L3.186,35.789a15.019,15.019,0,0,0-.908,1.3l-.154.221.014.01A14.969,14.969,0,0,0,15,60H31.25a1.25,1.25,0,0,0,0-2.5h-.271l3.056-5H36.25a1.25,1.25,0,0,0,0-2.5h-.688l3.055-5H41.25a1.25,1.25,0,1,0,0-2.5h-1.1l3.055-5H45A1.25,1.25,0,1,0,45,35h-.271l3.056-5H50a1.25,1.25,0,0,0,0-2.5h-.688l3.056-5H53.75A1.249,1.249,0,0,0,55,21.25a1.237,1.237,0,0,0-1.12-1.224L56.951,15h1.8a1.25,1.25,0,1,0,0-2.5ZM26.621,6.555A9.446,9.446,0,0,1,34.529,2.5a9.288,9.288,0,0,1,2.959.481l.344.115a9.308,9.308,0,0,1,6.116,6.6,9.4,9.4,0,0,1-1.123,7.2L27.4,41.462A12.476,12.476,0,0,0,15,30a14.9,14.9,0,0,0-5.455,1.042ZM28.049,57.5H15A12.456,12.456,0,0,1,4.483,38.3l.436-.624A12.462,12.462,0,0,1,15,32.5a10,10,0,0,1,0,20,7.5,7.5,0,0,1,0-15,5,5,0,0,1,.981.1l-1.675,2.451A5,5,0,0,0,15,50a7.5,7.5,0,0,0,0-15,10,10,0,0,0,0,20,12.469,12.469,0,0,0,11.092-6.858l.044.027L44.946,18.22A11.766,11.766,0,0,0,46.268,15h7.753ZM16.033,41.956,18.252,38.7A5,5,0,0,1,15,47.5a2.5,2.5,0,1,1,0-5A1.257,1.257,0,0,0,16.033,41.956Z" fill="#2a2f44"/>
  </g>
</svg>
