<svg xmlns="http://www.w3.org/2000/svg" width="52.5" height="60" viewBox="0 0 52.5 60">
  <g id="hand-bag" transform="translate(-32)">
    <g id="Group_10" data-name="Group 10" transform="translate(32)">
      <path id="Path_5" data-name="Path 5" d="M84.5,24.925a4.085,4.085,0,0,0-3.187-3.613l-19.675-19C60.2.825,59.4,0,58.25,0S56.3.812,54.863,2.3L35.25,21.25h-.088C33.3,21.25,32,23.187,32,24.925V33.75a19.761,19.761,0,0,0,1.3,7.275,1.462,1.462,0,0,0-.05.225v8.675a9.15,9.15,0,0,0,2.288,7.037C37.413,58.95,40.225,60,43.7,60H72.275a11.661,11.661,0,0,0,8.662-3.25A8.831,8.831,0,0,0,83.25,50V41.25a1.448,1.448,0,0,0-.05-.225,19.758,19.758,0,0,0,1.3-7.275ZM56.613,4.087l.025-.025a14.147,14.147,0,0,1,1.6-1.525,14.287,14.287,0,0,1,1.637,1.55L77.662,21.25H38.85Zm22.5,50.95A9.191,9.191,0,0,1,72.288,57.5H43.7c-2.762,0-4.963-.775-6.338-2.25A6.749,6.749,0,0,1,35.75,50V45.175A14.277,14.277,0,0,0,47,50h6.25v1.25A1.254,1.254,0,0,0,54.5,52.5h6.25A1.254,1.254,0,0,0,62,51.25V50h7.5a14.277,14.277,0,0,0,11.25-4.825v4.9A6.336,6.336,0,0,1,79.113,55.037ZM55.75,50V46.25H59.5V50ZM82.013,33.75c0,8.488-4.787,13.75-12.5,13.75h-7.5V45a1.254,1.254,0,0,0-1.25-1.25h-6.25A1.254,1.254,0,0,0,53.262,45v2.5h-6.25c-7.712,0-12.5-5.262-12.5-13.75V24.925H34.5c0-.587.45-1.175.662-1.175H80.838a1.174,1.174,0,0,1,1.175,1.175Z" transform="translate(-32 0)" fill="#2a2f44"/>
    </g>
  </g>
</svg>
