<svg xmlns="http://www.w3.org/2000/svg" width="61.284" height="60" viewBox="0 0 61.284 60">
  <g id="jacket" transform="translate(0 -5.364)">
    <g id="Group_11" data-name="Group 11" transform="translate(0 5.364)">
      <path id="Path_6" data-name="Path 6" d="M61.267,52.828a1.327,1.327,0,0,1-.038-.153L49.739,13.6a1.276,1.276,0,0,0-.74-.817L40.407,9.258,38.071,5.913a1.261,1.261,0,0,0-1.047-.536V5.364H24.258v.013a1.261,1.261,0,0,0-1.047.536L20.875,9.27l-8.592,3.511a1.306,1.306,0,0,0-.74.817L.054,52.675a1.269,1.269,0,0,0,.868,1.583l.153.038,7.66,1.226a1.269,1.269,0,0,0,1.4-.817L14.76,42.066,11.5,63.9a1.274,1.274,0,0,0,1.072,1.455.964.964,0,0,0,.191.013H48.513a1.28,1.28,0,0,0,1.277-1.277.963.963,0,0,0-.013-.191l-3.255-21.83L51.143,54.7a1.269,1.269,0,0,0,1.4.817l7.66-1.226A1.275,1.275,0,0,0,61.267,52.828ZM37.777,9.947l.753,1.085a1.206,1.206,0,0,0,.562.447l1.009.408a16.251,16.251,0,0,1-8.183,13.43V20.8C35.467,17.849,37.062,13.1,37.777,9.947ZM29.352,62.811H14.25l4.889-32.783a1.277,1.277,0,0,0-2.464-.626L8.1,52.841l-5.183-.83,10.9-37.1L19.19,12.7A17.533,17.533,0,0,0,29.352,28.024ZM29.365,25.2A15.039,15.039,0,0,1,21.68,11.67l.485-.2a1.319,1.319,0,0,0,.562-.46l.766-1.085c.715,3.166,2.323,7.94,5.872,10.889V25.2Zm1.277-6.689c-3.281-3.013-4.506-8.145-4.915-10.6h9.843C35.148,10.368,33.922,15.5,30.641,18.513ZM53.186,52.841,44.607,29.4a1.277,1.277,0,0,0-2.464.626l4.889,32.783H31.918V28.228A18.685,18.685,0,0,0,42.565,12.909l4.889,2,10.9,37.1Z" transform="translate(0 -5.364)" fill="#2a2f44"/>
    </g>
  </g>
</svg>
