<svg id="location" xmlns="http://www.w3.org/2000/svg" width="20.824" height="27.019" viewBox="0 0 20.824 27.019">
  <path id="Path_14" data-name="Path 14" d="M35.3,0A10.424,10.424,0,0,0,24.89,10.413c0,4.1,1.718,8.253,4.967,12a26.325,26.325,0,0,0,4.934,4.453.934.934,0,0,0,1.021,0,26.328,26.328,0,0,0,4.934-4.452c3.25-3.749,4.968-7.9,4.968-12A10.425,10.425,0,0,0,35.3,0Zm0,24.94c-1.915-1.427-8.545-6.919-8.545-14.527a8.545,8.545,0,1,1,17.091,0C43.847,18.021,37.217,23.513,35.3,24.94Z" transform="translate(-24.89)" fill="#2a2f44"/>
  <path id="Path_15" data-name="Path 15" d="M79.483,50.449a4.132,4.132,0,1,0,4.132,4.133A4.137,4.137,0,0,0,79.483,50.449Zm0,6.4a2.266,2.266,0,1,1,2.266-2.265A2.268,2.268,0,0,1,79.483,56.847Z" transform="translate(-69.071 -44.171)" fill="#2a2f44"/>
</svg>
