<svg id="mail" xmlns="http://www.w3.org/2000/svg" width="30" height="20.41" viewBox="0 0 30 20.41">
  <path id="Path_16" data-name="Path 16" d="M50.983,68.761l-9.715,8.561-9.717-8.561a.933.933,0,1,0-1.234,1.4l10.334,9.1a.934.934,0,0,0,1.234,0l10.332-9.1a.933.933,0,1,0-1.234-1.4Z" transform="translate(-26.267 -64.795)" fill="#2a2f44"/>
  <path id="Path_17" data-name="Path 17" d="M27.2,38.529H2.8a2.8,2.8,0,0,0-2.8,2.8v14.81a2.8,2.8,0,0,0,2.8,2.8H27.2a2.8,2.8,0,0,0,2.8-2.8V41.329A2.8,2.8,0,0,0,27.2,38.529Zm.933,17.61a.934.934,0,0,1-.933.933H2.8a.934.934,0,0,1-.933-.933V41.329A.934.934,0,0,1,2.8,40.4H27.2a.934.934,0,0,1,.933.933Z" transform="translate(0 -38.529)" fill="#2a2f44"/>
</svg>
