<svg id="phone-call" xmlns="http://www.w3.org/2000/svg" width="25.602" height="26.336" viewBox="0 0 25.602 26.336">
  <path id="Path_11" data-name="Path 11" d="M115.78,3.45A11.7,11.7,0,0,0,107.45,0a.933.933,0,0,0,0,1.867,9.913,9.913,0,0,1,9.913,9.913.933.933,0,0,0,1.867,0A11.7,11.7,0,0,0,115.78,3.45Z" transform="translate(-93.628 0)" fill="#2a2f44"/>
  <path id="Path_12" data-name="Path 12" d="M111.94,49.935a.933.933,0,0,0,1.867,0,6.365,6.365,0,0,0-6.357-6.357h0a.933.933,0,0,0,0,1.867A4.5,4.5,0,0,1,111.94,49.935Z" transform="translate(-93.628 -38.155)" fill="#2a2f44"/>
  <path id="Path_13" data-name="Path 13" d="M19.2,44.413a2.818,2.818,0,0,0-2.5,1.493.933.933,0,1,0,1.541,1.054c.411-.6.6-.695.849-.683A12.022,12.022,0,0,1,23.4,49.432a.966.966,0,0,1-.009.681,3.221,3.221,0,0,1-1.6,2.015,3,3,0,0,1-2.4-.081,26.379,26.379,0,0,1-8.653-5.634l0,0a26.375,26.375,0,0,1-5.623-8.642,3,3,0,0,1-.081-2.4,3.22,3.22,0,0,1,2.014-1.6.964.964,0,0,1,.68-.01,12.045,12.045,0,0,1,3.157,4.3c.013.262-.082.448-.682.858a.933.933,0,1,0,1.053,1.541,2.815,2.815,0,0,0,1.493-2.5c-.081-1.491-2.982-5.44-4.368-5.95A2.822,2.822,0,0,0,6.451,32a5.024,5.024,0,0,0-3.116,2.59,4.8,4.8,0,0,0,.049,3.881,28.231,28.231,0,0,0,6.035,9.261l.019.019a28.238,28.238,0,0,0,9.25,6.024,5.538,5.538,0,0,0,2.084.435,4.278,4.278,0,0,0,1.8-.386,5.023,5.023,0,0,0,2.591-3.117,2.823,2.823,0,0,0-.01-1.923C24.638,47.395,20.69,44.494,19.2,44.413Z" transform="translate(-2.949 -27.874)" fill="#2a2f44"/>
</svg>
