<svg xmlns="http://www.w3.org/2000/svg" width="64.271" height="59.937" viewBox="0 0 64.271 59.937">
  <g id="Page-1" transform="translate(0 -0.063)">
    <g id="_044---Cup-Phones" data-name="044---Cup-Phones" transform="translate(0 0.063)">
      <path id="Shape" d="M5.358,60h22.5c3.263,0,5.118-5.338,5.336-10.715h9.129a9.119,9.119,0,0,0,9.085-9.751,9.291,9.291,0,0,0-9.384-8.465H23.859a3.215,3.215,0,0,1-1.194-6.2l9.4-3.759c1.565,4.214,4.141,7.822,6.781,7.822a2.875,2.875,0,0,0,.763-.107l15.5-4.229,6.2-1.691c3.357-.917,3.57-7.269,2.067-12.781A22.2,22.2,0,0,0,60,2.781C58.4.669,56.672-.26,55.112.163l-6.2,1.691H48.91L33.4,6.083c-3.356.916-3.57,7.269-2.067,12.78.019.07.041.137.061.207L21.87,22.88a5.358,5.358,0,0,0,1.99,10.333H42.026a7.143,7.143,0,0,1,7.247,6.471,6.976,6.976,0,0,1-6.948,7.459H33.2c-.214-5.377-2.073-10.715-5.336-10.715H5.358C1.877,36.427,0,42.5,0,48.213S1.877,60,5.358,60ZM41.674,16.046c-.957-3.489-2.666-6.912-4.648-8.729l3.145-.857c.609-.178,1.639.554,2.611,1.842a19.961,19.961,0,0,1,3.026,6.617c1.549,5.679.7,9.8-.564,10.148l-3.144.857c.785-2.569.525-6.39-.426-9.878ZM55.113,12.38c1.548,5.679.7,9.8-.565,10.149l-6.246,1.7c.785-2.572.525-6.392-.429-9.879A22.159,22.159,0,0,0,44.49,7.011a9.939,9.939,0,0,0-1.252-1.393l6.236-1.7C50.742,3.575,53.565,6.705,55.113,12.38Zm.563-10.149c.613-.176,1.642.555,2.613,1.843a20,20,0,0,1,3.026,6.614c1.549,5.679.7,9.8-.564,10.149l-3.145.857c.785-2.572.525-6.392-.429-9.88S54.512,4.9,52.531,3.087ZM33.967,8.151a.761.761,0,0,1,.2-.026c1.344,0,3.965,3.089,5.438,8.484,1.549,5.679.7,9.8-.564,10.149-1.11.314-3.405-2.047-5-6.44l2.786-1.113a1.072,1.072,0,1,0-.8-1.991L33.4,18.269c-1.537-5.662-.69-9.773.571-10.118ZM31.074,48.213c0,5.887-1.9,9.644-3.215,9.644H24.6c1.438-2.274,2.188-6.027,2.188-9.644s-.75-7.37-2.188-9.644h3.26C29.17,38.57,31.074,42.327,31.074,48.213Zm-6.429,0c0,5.887-1.9,9.644-3.215,9.644H14.956c1.438-2.274,2.188-6.027,2.188-9.644s-.75-7.37-2.188-9.644H21.43C22.741,38.57,24.645,42.327,24.645,48.213Zm-9.644,0c0,5.887-1.9,9.644-3.215,9.644H8.527c1.438-2.274,2.188-6.027,2.188-9.644s-.75-7.37-2.188-9.644h3.26C13.1,38.57,15,42.327,15,48.213ZM5.358,38.57c1.31,0,3.215,3.757,3.215,9.644s-1.9,9.644-3.215,9.644S2.143,54.1,2.143,48.213,4.047,38.57,5.358,38.57Z" transform="translate(0 -0.063)" fill="#2a2f44"/>
    </g>
  </g>
</svg>
