<svg xmlns="http://www.w3.org/2000/svg" xmlns:xlink="http://www.w3.org/1999/xlink" viewBox="0 0 699.71 148.24"><defs><style>.cls-1{fill:none;}.cls-2{fill:#651fff;}.cls-3{fill:#2a2f44;}.cls-4{clip-path:url(#clip-path);}.cls-5{clip-path:url(#clip-path-2);}</style><clipPath id="clip-path" transform="translate(0 -3.25)"><polygon class="cls-1" points="444.45 61.89 395.25 61.89 395.25 29 332.45 29 332.45 0 444.45 0 444.45 61.89"/></clipPath><clipPath id="clip-path-2" transform="translate(0 -3.25)"><polygon class="cls-1" points="345.45 54 394.65 54 394.65 86.89 457.45 86.89 457.45 115.89 345.45 115.89 345.45 54"/></clipPath></defs><g id="Layer_2" data-name="Layer 2"><g id="Layer_1-2" data-name="Layer 1"><g id="Group_257" data-name="Group 257"><path id="Rectangle_150" data-name="Rectangle 150" class="cls-2" d="M13,128.49H688a11.5,11.5,0,0,1,11.5,11.5h0a11.5,11.5,0,0,1-11.5,11.5H13A11.5,11.5,0,0,1,1.51,140h0A11.5,11.5,0,0,1,13,128.49Z" transform="translate(0 -3.25)"/><path id="Rectangle_151" data-name="Rectangle 151" class="cls-3" d="M441.51,128.49H688a11.5,11.5,0,0,1,11.5,11.5h0a11.5,11.5,0,0,1-11.5,11.5H441.51v-23Z" transform="translate(0 -3.25)"/></g><path id="Path_162" data-name="Path 162" class="cls-3" d="M124.47,112.49H100.16V47.13q0-10.59.92-23.38h-.61A114,114,0,0,1,97,38.22L71.45,112.49H51.34L25.29,39q-1.07-3-3.43-15.23h-.69q1,16.14,1,28.33v60.41H0V3.26H36L58.35,68a91.23,91.23,0,0,1,3.88,15.62h.46A156.53,156.53,0,0,1,67,67.85L89.35,3.26h35.12Zm120.88,0H218.54l-7.77-24.3H171.92l-7.69,24.3H137.57L177.33,3.26H206.5ZM205.13,69.3,193.4,32.59a48.27,48.27,0,0,1-1.83-9.83H191a41.21,41.21,0,0,1-1.9,9.52l-11.88,37Zm144.65,43.19H318.71L286.87,65a45.66,45.66,0,0,1-2.9-6h-.38v53.48H259V3.26h24.6V54.9H284q.91-2.13,3-6.09L317.18,3.26h29.33l-38.09,52.1Zm200.41,0H527v-60a174,174,0,0,1,.76-17.68h-.46q-1.59,3.14-5.48,9.07l-45.1,68.63H451.93V3.26h23.23v60.4a115.58,115.58,0,0,1-.61,15h.3c.26-.61,2.13-3.58,5.64-8.91l43.34-66.5h26.35Zm149.52,0h-24.3V47.13q0-10.59.92-23.38h-.61a114,114,0,0,1-3.43,14.47L646.7,112.49H626.59L600.54,39q-1.06-3-3.43-15.23h-.68q1,16.14,1,28.33v60.41H575.25V3.26h36L633.6,68a91.23,91.23,0,0,1,3.88,15.62h.46a156.53,156.53,0,0,1,4.34-15.77L664.6,3.26h35.11Z" transform="translate(0 -3.25)"/><path id="Path_163" data-name="Path 163" class="cls-2" d="M550.19,112.49H527v-60a174,174,0,0,1,.76-17.68h-.46q-1.59,3.14-5.48,9.07l-45.1,68.63H451.93V3.26h23.23v60.4a115.58,115.58,0,0,1-.61,15h.3c.26-.61,2.13-3.58,5.64-8.91l43.34-66.5h26.35Zm149.52,0h-24.3V47.13q0-10.59.92-23.38h-.61a114,114,0,0,1-3.43,14.47L646.7,112.49H626.59L600.54,39q-1.06-3-3.43-15.23h-.68q1,16.14,1,28.33v60.41H575.25V3.26h36L633.6,68a91.23,91.23,0,0,1,3.88,15.62h.46a156.53,156.53,0,0,1,4.34-15.77L664.6,3.26h35.11Z" transform="translate(0 -3.25)"/><g id="Group_271" data-name="Group 271"><g id="Group_266" data-name="Group 266"><g class="cls-4"><g id="Mask_Group_1" data-name="Mask Group 1"><g id="Group_256" data-name="Group 256"><g id="Group_246" data-name="Group 246"><path id="Path_146" data-name="Path 146" class="cls-2" d="M442.68,31.27a26.52,26.52,0,0,1-26.5,26.5H372a26.5,26.5,0,0,1,0-53h44.17A26.53,26.53,0,0,1,442.68,31.27ZM372,20.67a10.6,10.6,0,1,0,0,21.2h44.18a10.6,10.6,0,0,0,0-21.2H372Z" transform="translate(0 -3.25)"/></g></g></g></g><g class="cls-5"><g id="Mask_Group_2" data-name="Mask Group 2"><g id="Group_265" data-name="Group 265"><g id="Group_264" data-name="Group 264"><path id="Path_165" data-name="Path 165" class="cls-3" d="M347.22,84.62a26.53,26.53,0,0,1,26.5-26.5H417.9a26.5,26.5,0,0,1,0,53H373.72A26.53,26.53,0,0,1,347.22,84.62Zm70.68,10.6a10.6,10.6,0,0,0,0-21.2H373.72a10.6,10.6,0,0,0,0,21.2Z" transform="translate(0 -3.25)"/></g></g></g></g></g><g class="cls-5"><g id="Mask_Group_3" data-name="Mask Group 3"><g id="Group_268" data-name="Group 268"><g id="Group_267" data-name="Group 267"><path id="Path_167" data-name="Path 167" class="cls-3" d="M347.22,84.62a26.53,26.53,0,0,1,26.5-26.5H417.9a26.5,26.5,0,0,1,0,53H373.72A26.53,26.53,0,0,1,347.22,84.62Zm70.68,10.6a10.6,10.6,0,0,0,0-21.2H373.72a10.6,10.6,0,0,0,0,21.2Z" transform="translate(0 -3.25)"/></g></g></g></g></g></g></g></svg>