<svg xmlns="http://www.w3.org/2000/svg" viewBox="0 0 179.33 236.05"><defs><style>.cls-1{fill:#651fff;}.cls-1,.cls-2{stroke:#fff;stroke-width:3px;}.cls-2{fill:#2a2f44;}</style></defs><g id="Layer_2" data-name="Layer 2"><g id="Layer_1-2" data-name="Layer 1"><g id="Group_252" data-name="Group 252"><path id="shop-bag" class="cls-1" d="M59.37,193.53a3.41,3.41,0,0,0,3.41,3.41h53.74a3.41,3.41,0,1,0,0-6.82H62.78a3.41,3.41,0,0,0-3.41,3.41Zm117.2,22.37L174,210.47a53.6,53.6,0,0,1-3.27-9,1.94,1.94,0,0,0,0-.2,52.76,52.76,0,0,1-1.62-10.6L162.87,68.45a16.79,16.79,0,0,0-16.77-16H131.83V43.68a42.18,42.18,0,0,0-84.36,0V52.5H33.22a16.8,16.8,0,0,0-16.79,16L16,77.36a3.42,3.42,0,0,0,6.82.4v-.05l.45-8.91a10,10,0,0,1,10-9.47H47.47V69.8a13.87,13.87,0,1,0,6.83,0V59.33H125V69.8a13.87,13.87,0,1,0,6.83,0V59.33H146.1a10,10,0,0,1,10,9.47L162.27,191a61.22,61.22,0,0,0,1,8.43c-21.75,3.24-52.17,4.7-73.65,4.7s-51.9-1.46-73.64-4.7A61.22,61.22,0,0,0,17,191L22,93.58a3.41,3.41,0,1,0-6.81-.4v0l-4.95,97.4a53.48,53.48,0,0,1-1.62,10.6l-.06.2a52.71,52.71,0,0,1-3.26,9L2.74,215.9a13.1,13.1,0,0,0,11.87,18.65H153.87a3.41,3.41,0,1,0,0-6.82H14.61a6.28,6.28,0,0,1-5.69-8.94l2.54-5.43a60,60,0,0,0,2.85-7.3c22.16,3.36,53.4,4.88,75.34,4.88s53.19-1.52,75.35-4.88a61.59,61.59,0,0,0,2.84,7.3l2.54,5.43a6.25,6.25,0,0,1-2.26,7.93,3.42,3.42,0,0,0,3.66,5.77l.09-.06a13,13,0,0,0,4.7-16.53ZM57.93,83.25a7,7,0,1,1-10.46-6.16v6.16a3.42,3.42,0,0,0,6.83,0h0V77.09A7,7,0,0,1,57.93,83.25ZM54.3,52.5V43.68a35.35,35.35,0,1,1,70.7,0V52.5Zm81.16,30.75A7,7,0,1,1,125,77.09v6.16a3.42,3.42,0,0,0,6.83,0V77.09A7,7,0,0,1,135.46,83.25Zm-16.72,55.33a8.77,8.77,0,0,0-5.58-8.19L74.78,115.18a10.38,10.38,0,0,0-13.47,13.48L76.51,167a8.77,8.77,0,0,0,8.19,5.58h0a8.76,8.76,0,0,0,8.2-5.54l4.44-11,14.87,14.88a3.41,3.41,0,0,0,4.86-4.79l0,0-14.88-14.87,11-4.44a8.77,8.77,0,0,0,5.54-8.21Zm-8.08,1.88-15.82,6.35a3.39,3.39,0,0,0-1.9,1.91l-6.36,15.82a1.94,1.94,0,0,1-1.86,1.25h0a1.93,1.93,0,0,1-1.86-1.26l-15.2-38.39a3.49,3.49,0,0,1,.79-3.82,3.58,3.58,0,0,1,2.48-1.06,3.86,3.86,0,0,1,1.34.27l38.38,15.21a2,2,0,0,1,1.14,2.59,2,2,0,0,1-1.13,1.13Z"/><path id="shop-bag-2" class="cls-2" d="M118.75,138.58a8.79,8.79,0,0,0-5.58-8.19L74.78,115.18a10.38,10.38,0,0,0-13.47,13.48L76.51,167a8.77,8.77,0,0,0,8.19,5.58h0a8.76,8.76,0,0,0,8.2-5.54l4.44-11,14.87,14.88a3.41,3.41,0,0,0,4.86-4.79l0,0-14.88-14.87,11-4.44a8.77,8.77,0,0,0,5.54-8.21Zm-8.09,1.88-15.82,6.35a3.47,3.47,0,0,0-1.9,1.91l-6.36,15.82a1.92,1.92,0,0,1-1.86,1.25h0a1.94,1.94,0,0,1-1.86-1.26l-15.2-38.39a3.49,3.49,0,0,1,.79-3.82,3.58,3.58,0,0,1,2.48-1.06,3.86,3.86,0,0,1,1.34.27l38.38,15.21a2,2,0,0,1,1.14,2.59,2,2,0,0,1-1.13,1.13Z"/><path id="shop-bag-3" class="cls-2" d="M59.37,193.53a3.41,3.41,0,0,0,3.41,3.41h53.74a3.41,3.41,0,1,0,0-6.82H62.78a3.41,3.41,0,0,0-3.41,3.41Z"/></g></g></g></svg>