<svg xmlns="http://www.w3.org/2000/svg" viewBox="0 0 198.45 222.41"><defs><style>.cls-1{fill:#651fff;}.cls-1,.cls-2{stroke:#fff;stroke-width:3px;}.cls-2{fill:#2a2f44;}</style></defs><g id="Layer_2" data-name="Layer 2"><g id="Layer_1-2" data-name="Layer 1"><g id="Group_255" data-name="Group 255"><g id="question"><path id="Path_119" data-name="Path 119" class="cls-1" d="M168.33,30.16A97.7,97.7,0,0,0,22.12,159.23L8.78,215.58A4.32,4.32,0,0,0,12,220.79a4.36,4.36,0,0,0,2.76-.25L74.8,193.87a97.71,97.71,0,0,0,93.53-163.7ZM99.25,188.29a89.67,89.67,0,0,1-23.67-3.18,4.26,4.26,0,0,0-2.9.22L19.22,209.07,31,159.19a4.35,4.35,0,0,0-.86-3.74,89,89,0,1,1,69.07,32.84Z"/><path id="Path_120" data-name="Path 120" class="cls-2" d="M160.86,98.65a61.62,61.62,0,1,0-61.61,61.61A61.61,61.61,0,0,0,160.86,98.65ZM99.25,151.6a53,53,0,1,1,52.95-53h0A53,53,0,0,1,99.25,151.6Z"/><path id="Path_121" data-name="Path 121" class="cls-1" d="M166.75,131.29a4.33,4.33,0,0,0-5.45,2.79h0c-3.65,11.38-13.84,19.23-21.74,23.8a4.33,4.33,0,0,0,4.34,7.5h0c9.22-5.33,21.16-14.64,25.65-28.66a4.32,4.32,0,0,0-2.8-5.44Z"/><path id="Path_122" data-name="Path 122" class="cls-1" d="M128.57,166a4.32,4.32,0,0,0-5.64,2.39l0,0a4.33,4.33,0,0,0,8,3.26v0a4.34,4.34,0,0,0-2.38-5.65Z"/><path id="Path_123" data-name="Path 123" class="cls-2" d="M97.78,121.74a5.89,5.89,0,0,0-4.7,2.09,7.88,7.88,0,0,0,0,10,5.8,5.8,0,0,0,4.7,2.15,6.74,6.74,0,0,0,5-2.15,7.08,7.08,0,0,0-5-12.06Z"/><path id="Path_124" data-name="Path 124" class="cls-2" d="M114.7,63.58q-5.85-5-15.67-5-8.77,0-14,4t-5.22,8.36a4.46,4.46,0,0,0,1.61,3.7A5.55,5.55,0,0,0,85,75.9a4,4,0,0,0,2.75-1.06,13,13,0,0,0,2-2.28,7.62,7.62,0,0,1,3.12-2.28,13.66,13.66,0,0,1,5.72-1.06,12.12,12.12,0,0,1,7.8,2.32,7.93,7.93,0,0,1,2.91,6.56,10.32,10.32,0,0,1-1.2,4.8,14.28,14.28,0,0,1-2.4,3.51q-1.2,1.19-3.6,3.25l-3,2.47q-6.25,5.58-6.26,16.31c0,2.2.36,3.72,1.09,4.55a4.77,4.77,0,0,0,3.71,1.24c3.48,0,5.22-1.26,5.22-3.76a30.24,30.24,0,0,1,.84-8.15q.83-2.82,4.38-5.64l2-1.67,2.74-2.61c.56-.55,1.42-1.55,2.58-3a23.61,23.61,0,0,0,2.64-3.87,26.61,26.61,0,0,0,1.68-4.23,16.74,16.74,0,0,0,.79-5.12,15.91,15.91,0,0,0-5.85-12.63Z"/></g></g></g></g></svg>