<svg xmlns="http://www.w3.org/2000/svg" viewBox="0 0 222.36 222.37"><defs><style>.cls-1{fill:#651fff;}.cls-1,.cls-2{stroke:#fff;stroke-width:3px;}.cls-2{fill:#2a2f44;}</style></defs><g id="Layer_2" data-name="Layer 2"><g id="Layer_1-2" data-name="Layer 1"><g id="Group_254" data-name="Group 254"><g id="User_Lock_Privacy" data-name="User Lock Privacy"><g id="Outline"><path id="Path_113" data-name="Path 113" class="cls-1" d="M32.35,190a3.43,3.43,0,0,0-3.43,3.43h0v24a3.43,3.43,0,0,0,6.86,0v-24A3.44,3.44,0,0,0,32.35,190Z"/><path id="Path_114" data-name="Path 114" class="cls-1" d="M73.51,18.88a3.45,3.45,0,1,0-2.7-1.33A3.39,3.39,0,0,0,73.51,18.88Z"/><path id="Path_115" data-name="Path 115" class="cls-1" d="M141.75,116.73a47.14,47.14,0,0,0,6.93-12.61,15.71,15.71,0,0,0,12.71-11.7l2-7.81A11.72,11.72,0,0,0,156,70.77l1-4.71a55.93,55.93,0,0,0,.87-5.9v0c.15-1.66.23-3.33.23-5A53,53,0,0,0,154,34.56,53.67,53.67,0,0,0,104.33,1.5h0A53.61,53.61,0,0,0,84,5.44a3.43,3.43,0,0,0,2.52,6.38l.07,0a47,47,0,0,1,64.29,37.74,36.11,36.11,0,0,0-15.18-6.86l-1.34-.22-13.14,8.76a30.52,30.52,0,0,1-33.87,0L74.25,42.45l-1.33.23a35.86,35.86,0,0,0-15.18,6.85,46.46,46.46,0,0,1,8.95-22.27,3.43,3.43,0,0,0-.7-4.79,3.37,3.37,0,0,0-2-.69,3.46,3.46,0,0,0-2.75,1.38,53.52,53.52,0,0,0-10.66,32,54.7,54.7,0,0,0,1.11,10.9l1,4.71a11.52,11.52,0,0,0-4.3,2.78A11.67,11.67,0,0,0,45,81.75a11.42,11.42,0,0,0,.36,2.85l1.95,7.82A15.71,15.71,0,0,0,60,104.12a47.21,47.21,0,0,0,16.94,22.26v13.35a3.42,3.42,0,0,1-2.82,3.37l-44.45,8.09A34.24,34.24,0,0,0,1.5,184.91v32.52a3.43,3.43,0,0,0,6.86,0V184.91a27.41,27.41,0,0,1,22.51-27l39.6-7.2a34.27,34.27,0,0,0,33.86,29,3.43,3.43,0,1,0,.12-6.85h-.12a27.41,27.41,0,0,1-27.14-23.55,10.29,10.29,0,0,0,6.58-9.59v-9.28a47.19,47.19,0,0,0,58-13.72Zm-37.42,11.59h0A40.13,40.13,0,0,1,65.78,99.89L65,97.49l-2.53,0a8.84,8.84,0,0,1-8.6-6.71L52,83a4.85,4.85,0,0,1,3.53-5.9,5.15,5.15,0,0,1,1.18-.14h4.2l-2.5-12.23c-.3-1.45-.52-2.91-.69-4.38,3.28-7,11.88-9.77,15.11-10.58l10.8,7.2a37.4,37.4,0,0,0,41.48,0l10.8-7.2c3.24.81,11.83,3.58,15.11,10.58-.17,1.46-.39,2.93-.69,4.38l-2.5,12.2v0H152a4.86,4.86,0,0,1,4.86,4.85,5.3,5.3,0,0,1-.14,1.19l-2,7.81a8.84,8.84,0,0,1-8.6,6.71h-2.51l-.77,2.42A40.12,40.12,0,0,1,104.33,128.32Z"/><path id="Path_116" data-name="Path 116" class="cls-2" d="M214,159.75v-14.3a37.75,37.75,0,0,0-46.71-36.62,3.43,3.43,0,0,0,.82,6.76,3.75,3.75,0,0,0,.82-.1,30.87,30.87,0,0,1,38.21,30v13.71H200.3V145.45a24,24,0,0,0-48,0v13.71h-6.85V145.45a30.8,30.8,0,0,1,4.22-15.6,3.43,3.43,0,0,0-5.78-3.68,2.39,2.39,0,0,0-.13.21,37.73,37.73,0,0,0-5.17,19.07v14.3a10.3,10.3,0,0,0-6.85,9.7v41.13A10.3,10.3,0,0,0,142,220.87h68.55a10.3,10.3,0,0,0,10.28-10.29V169.45A10.31,10.31,0,0,0,214,159.75Zm-54.84-14.3a17.14,17.14,0,0,1,34.27,0v13.71H159.17ZM214,210.58a3.43,3.43,0,0,1-3.43,3.42H142a3.43,3.43,0,0,1-3.43-3.42V169.45A3.43,3.43,0,0,1,142,166h68.55a3.43,3.43,0,0,1,3.43,3.42Z"/><path id="Path_117" data-name="Path 117" class="cls-2" d="M155.81,114.55a3.43,3.43,0,1,0,2.75,1.38A3.42,3.42,0,0,0,155.81,114.55Z"/><path id="Path_118" data-name="Path 118" class="cls-2" d="M176.3,172.88a12,12,0,0,0-3.43,23.49v7.35a3.43,3.43,0,0,0,6.86,0v-7.35a12,12,0,0,0-3.43-23.49Zm0,17.13a5.14,5.14,0,1,1,5.15-5.13A5.14,5.14,0,0,1,176.3,190Z"/></g></g></g></g></g></svg>