<svg xmlns="http://www.w3.org/2000/svg" viewBox="0 0 252 222.36"><defs><style>.cls-1{fill:#2a2f44;}.cls-1,.cls-2{stroke:#fff;stroke-width:3px;}.cls-2{fill:#651fff;}</style></defs><g id="Layer_2" data-name="Layer 2"><g id="Layer_1-2" data-name="Layer 1"><g id="Group_253" data-name="Group 253"><g id="scroll"><g id="Group_244" data-name="Group 244"><g id="Group_243" data-name="Group 243"><path id="Path_110" data-name="Path 110" class="cls-1" d="M115.51,41.19H65.11a3.65,3.65,0,1,0,0,7.29h50.4a3.65,3.65,0,1,0,0-7.29Z"/></g></g><g id="Group_246" data-name="Group 246"><g id="Group_245" data-name="Group 245"><path id="Path_111" data-name="Path 111" class="cls-1" d="M184,163.89H157a3.65,3.65,0,1,0,0,7.29h27a3.65,3.65,0,0,0,0-7.29Z"/></g></g><g id="Group_248" data-name="Group 248"><g id="Group_247" data-name="Group 247"><path id="Path_112" data-name="Path 112" class="cls-2" d="M233.11,53a3.65,3.65,0,0,0,5-1.42c7.15-12.93,11.44-26.07,12.42-38a3.68,3.68,0,0,0-3.42-3.93,2.26,2.26,0,0,0-.52,0c-13.91,1.13-29.15,6.76-43.75,15.84-1.58-6.41-3.57-11.42-6.05-15.21C192.94,4.45,188,1.5,182,1.5H22.8C15.26,1.5,9.57,3.92,5.89,8.7-1.27,18,2.45,32.56,2.61,33.18A3.65,3.65,0,0,0,6.14,35.9h32.1c3.27,20.76,3.1,50.27,2.95,77.44-.08,13.79-.16,28,.17,41a3.65,3.65,0,1,0,7.29-.18h0c-.33-12.89-.25-27.09-.17-40.83.19-32.55.36-63.87-4.19-85-.44-2-.93-4-1.5-6A42.27,42.27,0,0,0,36.54,8.8H182c6.61,0,11.31,6.85,14.33,20.93q-5.9,4.15-11.5,9A152.47,152.47,0,0,0,162.18,63H65.11a3.65,3.65,0,1,0,0,7.29h92a132.28,132.28,0,0,0-7.23,12.54H65.11a3.65,3.65,0,1,0,0,7.3h81.4a99.32,99.32,0,0,0-4.33,12.54H65.11a3.65,3.65,0,1,0,0,7.29h75.44c-.3,1.74-.53,3.46-.71,5.16l-11.26,11.27a3.64,3.64,0,0,0,0,5.16h0a3.7,3.7,0,0,0,5.15,0L145,120.28a84.5,84.5,0,0,0,19.8-4.63,116.12,116.12,0,0,0,19-8.87,139.72,139.72,0,0,0,16.68-11.37c0,6,0,12-.08,17.93-.14,26.21-.3,53.26,2.38,73.13h-121a3.67,3.67,0,0,0-3.64,3.71,4.8,4.8,0,0,0,.09.75s0,.07,0,.11v.06c.2.84,2.67,11.67-1.83,17.86l0,.06c-2.59,3.52-7.17,4.57-11.31,4.55-8.87,0-14-14.74-15.83-44.9a3.65,3.65,0,1,0-7.28.43c1.42,24.1,5.35,51.76,23.15,51.76H224.29c7.54,0,13.23-2.42,16.91-7.2,7.16-9.27,3.44-23.86,3.27-24.47a3.66,3.66,0,0,0-3.52-2.73H210.11c-2.76-19.41-2.6-46.67-2.45-73.09,0-8,.09-16.16.06-24.11,2-1.82,4-3.71,6-5.66a150.64,150.64,0,0,0,16.42-19.41,3.64,3.64,0,0,0-6-4.21,144.18,144.18,0,0,1-15.63,18.47A146.17,146.17,0,0,1,194,91.21c-12.55,9.56-26,16.43-38.75,19.79l-1.24.31,64.82-64.82a3.65,3.65,0,0,0-5.16-5.16L148.8,106.15c.09-.37.18-.75.28-1.13C152.8,90.78,160,77.77,168.9,66.18v0l.08-.11a145.41,145.41,0,0,1,29.3-28.75c14.53-10.66,30.11-17.7,44.4-19.88-1.49,9.71-5.25,20.19-11,30.6a3.65,3.65,0,0,0,1.42,5ZM36.87,28.61H9.15a38.38,38.38,0,0,1-.36-4.29c-.06-3.32.38-7.95,2.88-11.18C13.9,10.26,17.48,8.83,22.6,8.8L25,9.06l.1,0c4.82,1.26,8.59,7.05,11.23,17.25C36.52,27.09,36.7,27.85,36.87,28.61Zm201,165.15c.56,3.87,1,11-2.49,15.45-2.26,2.93-5.91,4.36-11.14,4.36H82.1c4.69-6.17,4.63-14.64,4-19.81Z"/></g></g></g><g id="scroll-2"><g id="Group_244-2" data-name="Group 244-2"><g id="Group_243-2" data-name="Group 243-2"><path id="Path_110-2" data-name="Path 110-2" class="cls-1" d="M115.51,41.19H65.11a3.65,3.65,0,1,0,0,7.29h50.4a3.65,3.65,0,1,0,0-7.29Z"/></g></g><g id="Group_246-2" data-name="Group 246-2"><g id="Group_245-2" data-name="Group 245-2"><path id="Path_111-2" data-name="Path 111-2" class="cls-1" d="M184,163.89H157a3.65,3.65,0,1,0,0,7.29h27a3.65,3.65,0,0,0,0-7.29Z"/></g></g><g id="Group_248-2" data-name="Group 248-2"><g id="Group_247-2" data-name="Group 247-2"><path id="Path_112-2" data-name="Path 112-2" class="cls-2" d="M233.11,53a3.65,3.65,0,0,0,5-1.42c7.15-12.93,11.44-26.07,12.42-38a3.68,3.68,0,0,0-3.42-3.93,2.26,2.26,0,0,0-.52,0c-13.91,1.13-29.15,6.76-43.75,15.84-1.58-6.41-3.57-11.42-6.05-15.21C192.94,4.45,188,1.5,182,1.5H22.8C15.26,1.5,9.57,3.92,5.89,8.7-1.27,18,2.45,32.56,2.61,33.18A3.65,3.65,0,0,0,6.14,35.9h32.1c3.27,20.76,3.1,50.27,2.95,77.44-.08,13.79-.16,28,.17,41a3.65,3.65,0,1,0,7.29-.18h0c-.33-12.89-.25-27.09-.17-40.83.19-32.55.36-63.87-4.19-85-.44-2-.93-4-1.5-6A42.27,42.27,0,0,0,36.54,8.8H182c6.61,0,11.31,6.85,14.33,20.93q-5.9,4.15-11.5,9A152.47,152.47,0,0,0,162.18,63H65.11a3.65,3.65,0,1,0,0,7.29h92a132.28,132.28,0,0,0-7.23,12.54H65.11a3.65,3.65,0,1,0,0,7.3h81.4a99.32,99.32,0,0,0-4.33,12.54H65.11a3.65,3.65,0,1,0,0,7.29h75.44c-.3,1.74-.53,3.46-.71,5.16l-11.26,11.27a3.64,3.64,0,0,0,0,5.16h0a3.7,3.7,0,0,0,5.15,0L145,120.28a84.5,84.5,0,0,0,19.8-4.63,116.12,116.12,0,0,0,19-8.87,139.72,139.72,0,0,0,16.68-11.37c0,6,0,12-.08,17.93-.14,26.21-.3,53.26,2.38,73.13h-121a3.67,3.67,0,0,0-3.64,3.71,4.8,4.8,0,0,0,.09.75s0,.07,0,.11v.06c.2.84,2.67,11.67-1.83,17.86l0,.06c-2.59,3.52-7.17,4.57-11.31,4.55-8.87,0-14-14.74-15.83-44.9a3.65,3.65,0,1,0-7.28.43c1.42,24.1,5.35,51.76,23.15,51.76H224.29c7.54,0,13.23-2.42,16.91-7.2,7.16-9.27,3.44-23.86,3.27-24.47a3.66,3.66,0,0,0-3.52-2.73H210.11c-2.76-19.41-2.6-46.67-2.45-73.09,0-8,.09-16.16.06-24.11,2-1.82,4-3.71,6-5.66a150.64,150.64,0,0,0,16.42-19.41,3.64,3.64,0,0,0-6-4.21,144.18,144.18,0,0,1-15.63,18.47A146.17,146.17,0,0,1,194,91.21c-12.55,9.56-26,16.43-38.75,19.79l-1.24.31,64.82-64.82a3.65,3.65,0,0,0-5.16-5.16L148.8,106.15c.09-.37.18-.75.28-1.13C152.8,90.78,160,77.77,168.9,66.18v0l.08-.11a145.41,145.41,0,0,1,29.3-28.75c14.53-10.66,30.11-17.7,44.4-19.88-1.49,9.71-5.25,20.19-11,30.6a3.65,3.65,0,0,0,1.42,5ZM36.87,28.61H9.15a38.38,38.38,0,0,1-.36-4.29c-.06-3.32.38-7.95,2.88-11.18C13.9,10.26,17.48,8.83,22.6,8.8L25,9.06l.1,0c4.82,1.26,8.59,7.05,11.23,17.25C36.52,27.09,36.7,27.85,36.87,28.61Zm201,165.15c.56,3.87,1,11-2.49,15.45-2.26,2.93-5.91,4.36-11.14,4.36H82.1c4.69-6.17,4.63-14.64,4-19.81Z"/></g></g></g><g id="scroll-3"><g id="Group_244-3" data-name="Group 244-3"><g id="Group_243-3" data-name="Group 243-3"><path id="Path_110-3" data-name="Path 110-3" class="cls-1" d="M115.51,41.19H65.11a3.65,3.65,0,1,0,0,7.29h50.4a3.65,3.65,0,1,0,0-7.29Z"/></g></g><g id="Group_246-3" data-name="Group 246-3"><g id="Group_245-3" data-name="Group 245-3"><path id="Path_111-3" data-name="Path 111-3" class="cls-1" d="M184,163.89H157a3.65,3.65,0,1,0,0,7.29h27a3.65,3.65,0,0,0,0-7.29Z"/></g></g><g id="Group_248-3" data-name="Group 248-3"><g id="Group_247-3" data-name="Group 247-3"><path id="Path_112-3" data-name="Path 112-3" class="cls-1" d="M233.11,53a3.65,3.65,0,0,0,5-1.42c7.15-12.93,11.44-26.07,12.42-38a3.68,3.68,0,0,0-3.42-3.93,2.26,2.26,0,0,0-.52,0c-13.91,1.13-29.15,6.76-43.75,15.84a108.55,108.55,0,0,0-18,13.25A152.54,152.54,0,0,0,162.18,63H65.11a3.65,3.65,0,1,0,0,7.29h92a131,131,0,0,0-7.23,12.54H65.11a3.65,3.65,0,1,0,0,7.29h81.4a99.32,99.32,0,0,0-4.33,12.54H65.11a3.65,3.65,0,1,0,0,7.3h75.44c-.3,1.74-.53,3.46-.71,5.16l-11.26,11.27a3.63,3.63,0,0,0,0,5.15h0a3.68,3.68,0,0,0,5.15,0L145,120.27a84,84,0,0,0,19.8-4.63,116.12,116.12,0,0,0,19-8.87,174.26,174.26,0,0,0,17.74-12,94.61,94.61,0,0,0,12.19-11.14A151.32,151.32,0,0,0,230.11,64.2a3.65,3.65,0,0,0-6-4.22,144.18,144.18,0,0,1-15.63,18.47A144.9,144.9,0,0,1,194,91.21c-12.55,9.56-26,16.44-38.75,19.79l-1.24.31,64.82-64.82a3.65,3.65,0,0,0-5.16-5.15h0L148.8,106.15c.09-.37.18-.75.28-1.13C152.8,90.78,160,77.77,168.9,66.18v0l.08-.11a145.41,145.41,0,0,1,29.3-28.75c14.53-10.66,30.11-17.7,44.4-19.88-1.49,9.71-5.25,20.19-11,30.6a3.65,3.65,0,0,0,1.42,5Z"/></g></g></g></g></g></g></svg>