<svg xmlns="http://www.w3.org/2000/svg" viewBox="0 0 230 216.48"><defs><style>.cls-1{fill:#f8f7f7;}.cls-2,.cls-7{fill:#4b4998;}.cls-2{opacity:0.05;isolation:isolate;}.cls-3{fill:none;}.cls-4{fill:#2b2e32;}.cls-5{fill:#2a2f44;}.cls-6{fill:#fff;}</style></defs><g id="Layer_2" data-name="Layer 2"><g id="Layer_1-2" data-name="Layer 1"><g id="Group_251" data-name="Group 251"><path id="Path_26" data-name="Path 26" class="cls-1" d="M144.24,42.43s-33.19-13-64.94,5.36-47,56.27-60.15,86.57S14.88,196.11,39.89,211s41.2-5.6,75.72-5.66c6.21,0,11.6.16,16.44.32,22.08.76,32.57,1.51,55.64-14.44,28.12-19.45,32-67.13,8.45-103.14s-51.9-45.69-51.9-45.69"/><path id="Path_27" data-name="Path 27" class="cls-2" d="M57,216.48a32,32,0,0,1-16.88-4.92c-15.59-9.31-24.26-25.7-24.27-44a64,64,0,0,1,5.49-25.47C33.21,114.66,47,80.37,75.78,63.7a67.41,67.41,0,0,1,34.13-8.92,74.23,74.23,0,0,1,24.68,4.06s25.67,8.77,47,41.39a85.08,85.08,0,0,1,14,46.15c0,19.54-7.38,37.4-21.64,47.26C157.49,205,148.1,207,135.08,207c-3.51,0-7.28-.14-11.53-.29s-9-.29-14.37-.29h-.52c-22.93,0-36.93,10-51.7,10"/><rect id="Rectangle_149" data-name="Rectangle 149" class="cls-3" width="230" height="216.48"/><path id="Path_45" data-name="Path 45" class="cls-4" d="M166.6,38.3h-.24a3.07,3.07,0,1,1-.9-2.18,3.08,3.08,0,0,1,.9,2.18h.49a3.57,3.57,0,1,0-3.57,3.57,3.57,3.57,0,0,0,3.57-3.57h-.25Z"/><path id="Path_47" data-name="Path 47" class="cls-5" d="M193.19,180.41c-1.89-1-5.27.82-6.62,2.16-.08.08-.94,1.15-1.4,1.75.12-.72.23-1.44.32-2.17.26-2.1.46-4.24.67-6.37.06-.65.13-1.3.2-2,.27.1,3.5,1.31,5.09,1.2a5.23,5.23,0,0,0,4-1.88,2.5,2.5,0,0,0-.61-3.49l-.23-.15c-1.89-1-5.27.82-6.61,2.16-.1.1-1.34,1.64-1.63,2,.15-1.43.32-2.86.54-4.26a43,43,0,0,1,1.22-5.6c.13,0,3.49,1.32,5.12,1.2a5.25,5.25,0,0,0,4-1.88,2.52,2.52,0,0,0-.61-3.5l-.23-.14c-1.89-1-5.27.82-6.62,2.16-.08.09-1,1.26-1.45,1.83l-.11-.06a32.64,32.64,0,0,1,2.22-5.32c.49-.95,1-1.82,1.52-2.67a16.48,16.48,0,0,0,4.85,1.7,5.22,5.22,0,0,0,4.18-1.42,2.5,2.5,0,0,0-.22-3.54,1.84,1.84,0,0,0-.22-.17c-1.77-1.18-5.32.24-6.81,1.42-.08.06-.82.81-1.36,1.36.24-.38.48-.77.72-1.13.89-1.34,1.78-2.51,2.58-3.53.46-.59.89-1.1,1.3-1.58a17,17,0,0,0,5.06-.72,5.27,5.27,0,0,0,3.06-3.19,2.51,2.51,0,0,0-1.84-3l-.26-.06c-2.11-.22-4.62,2.67-5.39,4.4-.07.15-.84,2.61-.8,2.61h0c-.4.46-.82,1-1.27,1.49-.83,1-1.75,2.17-2.67,3.49a45.89,45.89,0,0,0-2.77,4.41,33.36,33.36,0,0,0-2.36,5.33l0,.06c0-.62,0-2.36,0-2.49-.24-1.88-1.81-5.37-3.9-5.76a2.52,2.52,0,0,0-2.87,2.1,1.24,1.24,0,0,0,0,.27,5.27,5.27,0,0,0,2,3.93c1.2,1.06,4.5,2.09,4.76,2.18a45.19,45.19,0,0,0-1.4,5.76c-.2,1.14-.37,2.29-.52,3.44,0-.54,0-1,0-1.08-.24-1.88-1.82-5.37-3.91-5.76A2.52,2.52,0,0,0,179,168l0,.27a5.3,5.3,0,0,0,2,3.94,16.69,16.69,0,0,0,4.62,2.12c-.06.45-.12.89-.17,1.33-.26,2.13-.5,4.26-.8,6.34-.11.73-.24,1.45-.37,2.17,0-.48,0-.88,0-.94-.25-1.88-1.82-5.37-3.91-5.76a2.51,2.51,0,0,0-2.87,2.09,1.27,1.27,0,0,0,0,.28,5.25,5.25,0,0,0,2,3.93,16,16,0,0,0,4.48,2.08c-.16.74-.31,1.47-.49,2.17-.14.48-.24.95-.4,1.42s-.3.93-.45,1.4c-.32.87-.65,1.78-1,2.63-.14.37-.29.73-.43,1.1.54-.37,1.1-.74,1.65-1.13.27-.74.52-1.48.79-2.28l.42-1.4c.15-.47.25-1,.38-1.47.27-1.15.49-2.33.69-3.52a16.31,16.31,0,0,0,4.92,1.13,7.21,7.21,0,0,0,2.29-.53c.72-.77,1.43-1.56,2.12-2.36a2.42,2.42,0,0,0-1.25-2.62Z"/><path id="Path_48" data-name="Path 48" class="cls-5" d="M181.24,192.93a9.84,9.84,0,0,0-1.31-4.74,2.59,2.59,0,0,0,0-.56,2.5,2.5,0,0,0-2.8-2.18l-.27.05c-2,.54-3.35,4.14-3.45,6,0,.11.07,1.33.13,2.1-.1-.45-.2-.88-.31-1.34-.21-.91-.46-1.81-.71-2.78l-.43-1.4c-.13-.47-.33-1-.5-1.43-.4-1.11-.87-2.21-1.36-3.32a16.38,16.38,0,0,0,4.73-1.77,5.24,5.24,0,0,0,2.3-3.77,2.51,2.51,0,0,0-2.44-2.58h-.27c-2.11.23-3.94,3.59-4.33,5.45,0,.11-.15,1.48-.2,2.23-.3-.66-.6-1.33-.92-2-.95-1.9-2-3.8-3-5.69-.31-.58-.61-1.16-.91-1.74.28-.07,3.64-.85,4.9-1.81a5.23,5.23,0,0,0,2.3-3.77,2.5,2.5,0,0,0-2.44-2.58h-.27c-2.11.23-3.94,3.59-4.32,5.45,0,.14-.21,2.1-.23,2.6-.67-1.28-1.32-2.56-1.9-3.85a42.85,42.85,0,0,1-2.07-5.35c.13,0,3.64-.83,4.93-1.82a5.26,5.26,0,0,0,2.3-3.77,2.51,2.51,0,0,0-2.44-2.58h-.27c-2.11.23-3.94,3.59-4.33,5.45,0,.12-.16,1.61-.21,2.32l-.12,0a33.17,33.17,0,0,1-1.08-5.67c-.11-1.06-.17-2.07-.2-3.06a16.86,16.86,0,0,0,5-1.25,5.24,5.24,0,0,0,2.7-3.49,2.52,2.52,0,0,0-2.15-2.84l-.27,0c-2.12,0-4.31,3.14-4.9,4.94,0,.1-.24,1.13-.38,1.89,0-.45,0-.91,0-1.34,0-1.6.1-3.07.2-4.37.06-.74.13-1.41.2-2a17,17,0,0,0,3.83-3.4,5.25,5.25,0,0,0,.79-4.35,2.52,2.52,0,0,0-3.21-1.52l-.25.1c-1.89,1-2.38,4.77-2.07,6.64,0,.17.74,2.64.77,2.62l0,0c-.09.6-.17,1.24-.24,1.94-.13,1.3-.26,2.77-.3,4.39a45.14,45.14,0,0,0,.12,5.2,32.94,32.94,0,0,0,1,5.74l0,.07c-.34-.53-1.32-2-1.4-2.07-1.24-1.43-4.48-3.47-6.44-2.64a2.51,2.51,0,0,0-1.23,3.33,1.34,1.34,0,0,0,.12.24,5.25,5.25,0,0,0,3.85,2.16c1.58.23,4.91-.73,5.17-.81a44.23,44.23,0,0,0,2,5.58c.45,1.06,1,2.11,1.46,3.16-.3-.44-.58-.84-.63-.89-1.24-1.43-4.47-3.47-6.43-2.64a2.52,2.52,0,0,0-1.24,3.33c0,.08.08.16.13.24a5.24,5.24,0,0,0,3.85,2.16,16.75,16.75,0,0,0,5-.77l.6,1.2c1,1.92,1.93,3.83,2.82,5.73.32.67.6,1.34.89,2l-.54-.77c-1.24-1.43-4.48-3.47-6.43-2.64a2.51,2.51,0,0,0-1.24,3.33c0,.08.08.16.13.24a5.25,5.25,0,0,0,3.85,2.16,16.28,16.28,0,0,0,4.89-.73c.27.7.55,1.39.78,2.08.15.47.33.91.45,1.4l.4,1.41c.21.91.44,1.84.63,2.73.14.62.26,1.21.38,1.8-.3-.67-.93-2-1-2.07-1-1.6-3.9-4.12-6-3.59a2.51,2.51,0,0,0-1.73,3.1l.09.26a5.26,5.26,0,0,0,3.48,2.72c1.49.46,4.79,0,5.2,0,.2,1,.38,1.94.54,2.85.11.65.22,1.27.31,1.88l1.19-.71c-.08-.45-.17-.92-.27-1.4-.2-1-.42-2.07-.67-3.16a28.4,28.4,0,0,0,2.9-1.37,15.73,15.73,0,0,0,3.61,2.42l.85-.57c.11-.75.23-1.69.24-1.78Z"/><path id="Path_49" data-name="Path 49" class="cls-5" d="M154.21,154.26c1.52.66,5.25.58,5.25.58s-.8-2.44-.87-2.59c-.82-1.71-3.4-4.53-5.51-4.25a2.51,2.51,0,0,0-2.07,2.89,1.22,1.22,0,0,0,.06.26,5.22,5.22,0,0,0,3.14,3.11Z"/><path id="Path_50" data-name="Path 50" class="cls-4" d="M186.93,147.37a5.24,5.24,0,0,0,.9,4.32c.9,1.4,4.06,3.38,4.06,3.39s.68-2.48.7-2.64c.26-1.88-.33-5.66-2.25-6.59a2.52,2.52,0,0,0-3.32,1.27,1.84,1.84,0,0,0-.09.25Z"/><path id="Path_51" data-name="Path 51" class="cls-6" d="M150.15,33l-23.66.62L126,41.88l22.7,3.9s.05-7.77,2.15-12.65"/><path id="Path_52" data-name="Path 52" class="cls-4" d="M150.14,32.71l-23.88.63-.49,8.74,23.19,4v-.28s0-.12,0-.34c0-.77.1-2.77.4-5.11a28,28,0,0,1,1.72-7.1l-.44-.19a30.21,30.21,0,0,0-1.88,8.22c-.27,2.57-.29,4.52-.29,4.52h.24l0-.24-22.48-3.87.44-7.86,23.43-.62v-.48Z"/><path id="Path_53" data-name="Path 53" class="cls-6" d="M158.82,32.59a1.21,1.21,0,0,0-.46-1.65,1.19,1.19,0,0,0-.48-.16c-1.63-.36-7.58,0-8.49,0s-3.75,2.89-4.2,8.31-.05,8.32,1.05,8.86,8.49-.18,8.49-.18A70.59,70.59,0,0,1,157.64,38a11.66,11.66,0,0,0,1.18-5.42Z"/><path id="Path_54" data-name="Path 54" class="cls-4" d="M158.81,32.59l.22.11a1.92,1.92,0,0,0,.17-.78,1.22,1.22,0,0,0-.26-.8,1.72,1.72,0,0,0-1-.57,15.21,15.21,0,0,0-2.78-.16c-1.16,0-2.45,0-3.53.08s-1.94.08-2.23.08a1.13,1.13,0,0,0-.54.16,6.81,6.81,0,0,0-2.27,2.64,14.59,14.59,0,0,0-1.64,5.73c-.12,1.48-.18,2.77-.18,3.88a15.43,15.43,0,0,0,.32,3.52,4.4,4.4,0,0,0,.41,1.06,1.59,1.59,0,0,0,.63.63,2.49,2.49,0,0,0,.85.18c.36,0,.8,0,1.28,0,2.58,0,6.49-.38,6.49-.38l.17,0,0-.17.26-1.08a60.56,60.56,0,0,1,2.65-8.63A12.7,12.7,0,0,0,159.07,33a2,2,0,0,0,0-.4l-.24,0,.22.11-.22-.11-.24,0v0s0,.16,0,.34a12.26,12.26,0,0,1-1.17,4.94,45.86,45.86,0,0,0-2,6.07c-.55,2.06-.93,3.73-.93,3.73l.23.06,0-.24-.65.06c-1.22.1-3.89.32-5.79.32-.48,0-.9,0-1.24,0a2.28,2.28,0,0,1-.68-.13,1.07,1.07,0,0,1-.43-.44,9.55,9.55,0,0,1-.66-4.33c0-1.09.06-2.38.18-3.84a13.64,13.64,0,0,1,1.9-6.08,7.73,7.73,0,0,1,1.25-1.54,3.68,3.68,0,0,1,.51-.37.81.81,0,0,1,.31-.1c.31,0,1.17,0,2.25-.08s2.36-.08,3.51-.08a15,15,0,0,1,2.68.15,1.22,1.22,0,0,1,.73.39.83.83,0,0,1,.16.5,1.41,1.41,0,0,1-.07.41,1,1,0,0,1,0,.13v0h0l0,.07v.06l.24,0Z"/><path id="Path_55" data-name="Path 55" class="cls-5" d="M137.72,204c1.52-10.8,3.28-24.42,3.2-29.26a97.37,97.37,0,0,0-.37-9.81H76.12l-.64,1.56a120.84,120.84,0,0,0,0,25.86c.82,7.14,1.5,14.09,2,19.09,8.22-2.54,17.15-5.38,27.61-6.83l.34-23.85,2.65-2,1.23,25.36c3-.3,6.23-.47,9.56-.48,7.15,0,13.36.18,18.94.37Z"/><path id="Path_56" data-name="Path 56" class="cls-4" d="M137.72,204l.24,0c.74-5.29,1.55-11.26,2.16-16.54s1-9.87,1-12.44v-.32a95.18,95.18,0,0,0-.38-9.85l0-.2H76l-.72,1.74v0a114.14,114.14,0,0,0-.72,13.33,112.74,112.74,0,0,0,.68,12.59c.82,7.13,1.5,14.08,2,19.08l0,.3.28-.09c8.23-2.54,17.14-5.37,27.58-6.82l.21,0,.34-23.94,2.18-1.65L109,204.37l.26,0c3-.3,6.21-.47,9.54-.47h.66c6.86,0,12.86.18,18.26.37h.22l0-.21-.24,0v-.24c-5.4-.18-11.41-.37-18.28-.37h-.66c-3.34,0-6.53.18-9.59.48l0,.24h.25l-1.26-25.82-3.1,2.36-.34,24H105l0-.24c-10.49,1.46-19.43,4.3-27.65,6.84l.07.23.24,0c-.46-5-1.14-12-2-19.09A111.67,111.67,0,0,1,75,179.78c0-3.87.18-7.19.36-9.54.09-1.18.18-2.11.25-2.75s.11-1,.11-1l-.24,0,.22.1.58-1.42h64.26v-.24l-.24.05h0c0,.15.25,1.82.38,9.75v.32c0,2.52-.43,7.11-1,12.38s-1.42,11.24-2.16,16.53l.24,0v0Z"/><path id="Path_57" data-name="Path 57" class="cls-6" d="M91.74,81.11h35.44l4.06,87.38a38.57,38.57,0,0,1-12.68,1.56c-7.58-.22-9-2.67-16.06-.67S95,173,89.83,171.83l-5.14-1.11,7-89.61Z"/><path id="Path_58" data-name="Path 58" class="cls-4" d="M91.74,81.11v.24H127l4,87.15h.24l-.08-.23,0,0a38.19,38.19,0,0,1-11.24,1.55l-1.3,0a34.69,34.69,0,0,1-6.25-.78,22.59,22.59,0,0,0-4.84-.68,18.43,18.43,0,0,0-5,.8c-2.74.77-4.5,1.48-5.9,2a10.31,10.31,0,0,1-3.76.81,13.45,13.45,0,0,1-2.89-.36l-4.5-1-.64-.14,0,.24.24,0,7-89.61-.24,0h0l-.24,0-7.07,89.82.21.05.64.14,4.5,1a13.77,13.77,0,0,0,3,.38,10.57,10.57,0,0,0,3.92-.85c1.41-.51,3.15-1.21,5.87-2a17.74,17.74,0,0,1,4.91-.78,22.46,22.46,0,0,1,4.75.66,33.63,33.63,0,0,0,6.32.8c.45,0,.89,0,1.32,0a37.59,37.59,0,0,0,11.45-1.59l.17-.06-4.07-87.79H91.52l0,.22.24,0Z"/><path id="Path_59" data-name="Path 59" class="cls-4" d="M109.53,145.29c-.35,1-.62,1.89-.79,2.5a.24.24,0,0,0,.46.13c.17-.6.44-1.45.79-2.48a.24.24,0,0,0-.46-.16h0Z"/><path id="Path_60" data-name="Path 60" class="cls-4" d="M117.2,124.51s-4.12,10.73-6.68,17.92a.25.25,0,0,0,.15.31.24.24,0,0,0,.31-.15h0c1.28-3.59,2.94-8.06,4.29-11.64.68-1.79,1.27-3.36,1.7-4.48l.69-1.78a.26.26,0,0,0-.14-.32.25.25,0,0,0-.32.14Z"/><path id="Path_61" data-name="Path 61" class="cls-4" d="M107.63,135l-.92,2.07a.24.24,0,0,0,.44.2l.92-2.07a.25.25,0,0,0-.12-.32.25.25,0,0,0-.32.12h0"/><path id="Path_62" data-name="Path 62" class="cls-4" d="M113.94,120.76l-4.64,10.45a.25.25,0,0,0,.12.32.23.23,0,0,0,.32-.12L114.38,121a.26.26,0,0,0-.12-.33.24.24,0,0,0-.32.13"/><path id="Path_63" data-name="Path 63" class="cls-7" d="M117.42,88.42l.44,39.38,0,55.47s9.22,0,14.79-1.45,12.5-9,12.5-9-7.54-43.18-7.82-49.14,1.94-37.58,1.94-37.58,31.67-37.3,33.69-40.29c3.18-4.7,4-8.49,3.27-10.48s-17.4-3.43-19.2-2.89-4.49,13.19-4.49,13.19S141.08,54.45,137,56.8a91.4,91.4,0,0,1-11.84,5.6,35.54,35.54,0,0,0-9.3,6l1.58,20.06Z"/><path id="Path_64" data-name="Path 64" class="cls-4" d="M117.42,88.42h-.24l.44,39.38,0,55.71h.24s2.31,0,5.32-.18a54.82,54.82,0,0,0,9.54-1.27c2.86-.75,6-3,8.44-5.11a54.42,54.42,0,0,0,4.18-4l.08-.09,0-.12-.33-1.86c-.72-4.18-2.53-14.69-4.2-24.81-.83-5.06-1.62-10-2.22-14s-1-7.11-1.07-8.39c0-.34,0-.78,0-1.29,0-4.11.49-13.18,1-21.22.24-4,.49-7.78.67-10.53.09-1.38.17-2.51.22-3.29s.08-1.22.08-1.22l-.24,0,.19.16s7.91-9.32,16.09-19c4.08-4.85,8.23-9.8,11.48-13.71,1.63-2,3-3.67,4.09-5s1.78-2.22,2-2.61c2.49-3.67,3.57-6.8,3.57-9a4.83,4.83,0,0,0-.27-1.69,1,1,0,0,0-.33-.42,4.38,4.38,0,0,0-1.18-.6,43,43,0,0,0-8-1.55,81.89,81.89,0,0,0-8.28-.6c-.39,0-.74,0-1,0a3.76,3.76,0,0,0-.66.1,1.23,1.23,0,0,0-.45.3,4.77,4.77,0,0,0-.73,1.15,44.7,44.7,0,0,0-2.36,7.24c-.66,2.55-1.11,4.68-1.11,4.68l.23.05-.14-.19-.5.39c-1.12.86-4,3.05-7,5.28s-6.23,4.5-8,5.52A90.29,90.29,0,0,1,125,62.17a36.1,36.1,0,0,0-9.37,6l-.09.08,1.6,20.17.24,0h0l.24,0-1.58-20-.24,0,.16.18.18-.17a35.71,35.71,0,0,1,9-5.75A91.09,91.09,0,0,0,137.09,57c2.09-1.19,6-4,9.34-6.5s6.23-4.73,6.23-4.73l.07-.05,0-.09s0-.2.12-.54c.27-1.21,1-4.25,1.79-7A35.74,35.74,0,0,1,156,34.33a7.77,7.77,0,0,1,.64-1.21,1.06,1.06,0,0,1,.48-.48,2.61,2.61,0,0,1,.55-.08q.4,0,1,0a86,86,0,0,1,10.26.86,42.81,42.81,0,0,1,4.9,1,9.42,9.42,0,0,1,1.57.55,2.69,2.69,0,0,1,.46.28.58.58,0,0,1,.17.21,4.13,4.13,0,0,1,.25,1.51c0,2.06-1,5.13-3.49,8.75-.24.35-1,1.27-2,2.57-3.7,4.57-11.62,14-18.61,22.27L143,81.3l-2.85,3.36-1.05,1.24L139,86V86s-2,28-2,36.3c0,.52,0,1,0,1.31.08,1.52.6,5.33,1.34,10.22,2.24,14.67,6.49,38.95,6.49,39l.24-.05-.18-.16-.31.33a52.34,52.34,0,0,1-4.77,4.4,21.34,21.34,0,0,1-7.31,4.23,53.55,53.55,0,0,1-9.44,1.26c-1.5.09-2.82.13-3.77.16l-1.11,0h-.4v.24h.24l0-55.47-.44-39.39h0l-.25,0Z"/><path id="Path_65" data-name="Path 65" class="cls-4" d="M132.69,79.54c0,1.13.05,2.19.11,3.11l.49,0c-.06-.91-.1-2-.12-3.09Z"/><path id="Path_66" data-name="Path 66" class="cls-4" d="M133.35,60s-.64,9.56-.67,17.16h.48c0-3.79.19-8.07.35-11.41.08-1.67.16-3.1.22-4.11s.1-1.61.1-1.61l-.48,0Z"/><path id="Path_67" data-name="Path 67" class="cls-4" d="M135.5,58.75s-1.31,8.49-1.6,12.85l.48,0c.14-2.15.55-5.36.91-8,.18-1.33.35-2.53.48-3.39l.21-1.39-.48-.08Z"/><path id="Path_68" data-name="Path 68" class="cls-4" d="M152.66,45.79l1-.75c.89-.68,2.26-1.7,3.54-2.57.64-.43,1.26-.83,1.78-1.13a4.51,4.51,0,0,1,1.16-.53l-.08-.48a3.31,3.31,0,0,0-.81.31,38.6,38.6,0,0,0-4.26,2.8c-1.44,1.05-2.61,2-2.61,2l.3.38Z"/><path id="Path_69" data-name="Path 69" class="cls-7" d="M100.6,87.33l-1.76,49-2.66,48.6a102.92,102.92,0,0,1-14.35-4.51,48.12,48.12,0,0,1-10.93-6S73.72,158.7,75.57,150s4.28-26.56,4.24-29.45-.43-15.36-1.62-22-6.56-15.17-6.58-16.07,18.66-8.32,22.07-10.12a20.09,20.09,0,0,1,6.11-2.17l.91.36-.1,16.8Z"/><path id="Path_70" data-name="Path 70" class="cls-4" d="M100.6,87.33h-.24l-1.76,49-2.66,48.6.24,0,0-.24-.32-.07a105.21,105.21,0,0,1-14-4.43,57.11,57.11,0,0,1-8.09-4c-.92-.56-1.61-1-2.08-1.36l-.53-.39-.13-.1,0,0-.15.19.24,0,.12-.69c.57-3.13,2.93-16.11,4.55-23.69.92-4.31,2-10.87,2.81-16.74.41-2.94.77-5.71,1-7.94s.4-3.93.41-4.74v-.08c0-2.9-.42-15.36-1.62-22.08a42.23,42.23,0,0,0-3.75-10.28c-.75-1.53-1.46-2.9-2-3.92-.26-.51-.48-.94-.63-1.27a4.1,4.1,0,0,1-.16-.4.48.48,0,0,1,0-.17h-.14l.12.06,0-.06h-.14l.12.06,0,0,0,0h0l0,0,0,0a1,1,0,0,1,.25-.2,35.53,35.53,0,0,1,4-2C79,79,82.79,77.39,86.2,75.93s6.39-2.74,7.59-3.37a22.77,22.77,0,0,1,4.28-1.75c.54-.15,1-.25,1.28-.31l.35-.07h.11l0-.24-.09.22.76.3-.1,16.64h.48l.1-17-1.12-.45h-.06a20.33,20.33,0,0,0-6.19,2.19c-.84.45-2.64,1.25-4.87,2.21-3.34,1.44-7.63,3.25-11.1,4.78-1.73.77-3.25,1.46-4.35,2-.55.28-1,.52-1.3.71a2.57,2.57,0,0,0-.37.28l-.13.13a.42.42,0,0,0-.08.22h0a1.32,1.32,0,0,0,.08.33c.17.46.58,1.26,1.13,2.34,1.66,3.22,4.55,8.8,5.38,13.45,1.18,6.64,1.56,19.12,1.61,22v.08c0,.76-.15,2.45-.4,4.67C78.4,132,76.7,143.54,75.33,150c-1.85,8.68-4.67,24.4-4.67,24.4l0,.14.11.09a48.14,48.14,0,0,0,11,6,103,103,0,0,0,14.38,4.53l.28.06,2.68-48.88,1.76-49h-.24Z"/><path id="Path_73" data-name="Path 73" class="cls-6" d="M100.72,72.16s-.64,16.44.86,19.69,5.52,6.32,9.29,5.06,6.45-3.43,6.57-7.41-1-17.52-1-17.52Z"/><path id="Path_74" data-name="Path 74" class="cls-4" d="M100.72,72.16h-.24s-.14,3.52-.14,7.62c0,2.39,0,5,.2,7.19.07,1.11.17,2.12.3,3a7.78,7.78,0,0,0,.51,2,10.31,10.31,0,0,0,3.1,3.8,7.84,7.84,0,0,0,4.62,1.7,6,6,0,0,0,1.87-.3,11.71,11.71,0,0,0,4.75-2.75,7,7,0,0,0,2-4.88c0-.2,0-.43,0-.68,0-4.65-1-16.87-1-16.88l0-.22-16.17.18v.23h.24v.25l15.72-.18V72l-.24,0s.06.77.16,2c.28,3.66.85,11.4.85,14.86,0,.24,0,.46,0,.66a6.58,6.58,0,0,1-1.85,4.56,11.13,11.13,0,0,1-4.56,2.63,5.23,5.23,0,0,1-1.71.27,7.27,7.27,0,0,1-4.33-1.6,9.69,9.69,0,0,1-2.95-3.61,7.6,7.6,0,0,1-.48-1.89,77.08,77.08,0,0,1-.49-10.08c0-2,0-4,.07-5.34,0-.7,0-1.26,0-1.66s0-.61,0-.61h-.25v0Z"/><path id="Path_75" data-name="Path 75" class="cls-4" d="M117.44,89.5c.11-4-1-17.52-1-17.52l-15.72.18s-.23,5.93-.09,11.37A16.32,16.32,0,0,0,107.89,81a21.69,21.69,0,0,0,5.73-5.49l3.57,15.7a7.14,7.14,0,0,0,.24-1.72Z"/><path id="Path_76" data-name="Path 76" class="cls-4" d="M117.44,89.5h.24c0-.2,0-.43,0-.68,0-4.65-1-16.87-1-16.87l0-.23-16.17.19v.23s-.14,3.51-.14,7.62c0,1.23,0,2.51,0,3.76v.26l.26,0A16.64,16.64,0,0,0,108,81.21a22.07,22.07,0,0,0,5.8-5.56l-.2-.13-.24,0,3.79,16.69.25-1a8.12,8.12,0,0,0,.25-1.77h-.48a7.73,7.73,0,0,1-.24,1.66l.24.06.23,0-3.7-16.26-.31.48,0,0a22,22,0,0,1-5.64,5.4,16.1,16.1,0,0,1-7.16,2.47l0,.24h.24c0-1.25-.05-2.53-.05-3.75,0-2,0-4,.07-5.34,0-.7,0-1.26,0-1.65s0-.62,0-.62h-.24v.25l15.71-.18V72l-.24,0s.07.77.16,2c.28,3.66.85,11.41.85,14.86,0,.24,0,.47,0,.66h.25Z"/><path id="Path_77" data-name="Path 77" class="cls-6" d="M90.07,45.7s-1.36-2-2.65,1,1.28,7.18,2.47,8.19,4.38,2.34,4.35.83a46.67,46.67,0,0,0-2.33-10.36c-1-2.34-1.84.34-1.84.34Z"/><path id="Path_78" data-name="Path 78" class="cls-4" d="M90.07,45.7l.2-.14a2.37,2.37,0,0,0-.34-.37A1.45,1.45,0,0,0,89,44.8a1.33,1.33,0,0,0-.92.41,4.22,4.22,0,0,0-.89,1.4,4.86,4.86,0,0,0-.37,1.92,9.11,9.11,0,0,0,1.08,4,8.71,8.71,0,0,0,1.83,2.55,7.39,7.39,0,0,0,1.75,1,5.09,5.09,0,0,0,2,.52,1.11,1.11,0,0,0,.73-.2.83.83,0,0,0,.33-.7v0h0a16.14,16.14,0,0,0-.24-2c-.21-1.3-.54-3-.92-4.54a24.65,24.65,0,0,0-1.2-3.95,3,3,0,0,0-.5-.82.74.74,0,0,0-1.15,0,2.48,2.48,0,0,0-.47.76,3.16,3.16,0,0,0-.16.43l.23.07.2-.14-.2.14.23.07,0-.05a3.23,3.23,0,0,1,.29-.66,1,1,0,0,1,.24-.31.24.24,0,0,1,.19-.1s.11,0,.23.13a2.37,2.37,0,0,1,.41.68,33.18,33.18,0,0,1,1.54,5.45c.22,1.05.41,2.07.55,2.93A16.93,16.93,0,0,1,94,55.72h0v0a.37.37,0,0,1-.13.31.75.75,0,0,1-.44.1,4.91,4.91,0,0,1-1.76-.48,7.47,7.47,0,0,1-1.63-1,8.33,8.33,0,0,1-1.71-2.41,8.85,8.85,0,0,1-1-3.76,4.5,4.5,0,0,1,.34-1.74,3.73,3.73,0,0,1,.76-1.23.89.89,0,0,1,.6-.28,1,1,0,0,1,.61.27,1.89,1.89,0,0,1,.2.2l.05.06v0h0l.29.42.14-.49-.23-.07Z"/><path id="Path_79" data-name="Path 79" class="cls-6" d="M128,46.2s1.3-2,2.69,1-1.05,7.19-2.21,8.19-4.3,2.34-4.33.83a45.68,45.68,0,0,1,2-10.35c1-2.34,1.84.33,1.84.33Z"/><path id="Path_80" data-name="Path 80" class="cls-4" d="M128,46.2l.2.13h0a2,2,0,0,1,.28-.3.8.8,0,0,1,1.13,0l0,0a3.76,3.76,0,0,1,.81,1.23,4.48,4.48,0,0,1,.39,1.91,8.61,8.61,0,0,1-1,3.66,8,8,0,0,1-1.59,2.33,6.91,6.91,0,0,1-1.6,1,4.61,4.61,0,0,1-1.74.48.71.71,0,0,1-.45-.11.38.38,0,0,1-.14-.33v0a37.5,37.5,0,0,1,.64-4.84A33.09,33.09,0,0,1,126.38,46a2.26,2.26,0,0,1,.39-.67c.11-.12.18-.13.22-.13a.34.34,0,0,1,.24.13,2.27,2.27,0,0,1,.39.61c0,.11.08.2.11.27l0,.08v0l.16.48.28-.42-.2-.13.23-.08a7.17,7.17,0,0,0-.3-.69,2.54,2.54,0,0,0-.36-.5.86.86,0,0,0-.58-.27.78.78,0,0,0-.58.29,2.6,2.6,0,0,0-.48.82,31.28,31.28,0,0,0-1.37,5.47,37.18,37.18,0,0,0-.66,4.93v0a.86.86,0,0,0,.34.71,1.15,1.15,0,0,0,.74.2,5.09,5.09,0,0,0,1.94-.52,7.41,7.41,0,0,0,1.72-1,8.65,8.65,0,0,0,1.71-2.48,9.14,9.14,0,0,0,1-3.87,5.16,5.16,0,0,0-.43-2.12,4.35,4.35,0,0,0-.93-1.39,1.4,1.4,0,0,0-.93-.41,1.42,1.42,0,0,0-.92.39,1.7,1.7,0,0,0-.33.38l.2.13.23-.08-.23.08Z"/><path id="Path_81" data-name="Path 81" class="cls-6" d="M92.36,52.72s1.47,8.85,2.54,12.86S105.13,78.78,108.48,79s12.11-5.18,14.2-10.7,2.61-14.36,2.6-14.86,1.14-12.53-2.1-16.88-16.76-3.67-23.39-.17S89.57,45.2,92.36,52.72Z"/><path id="Path_82" data-name="Path 82" class="cls-4" d="M92.36,52.72l-.24,0s1.47,8.85,2.54,12.88a12.92,12.92,0,0,0,2.14,3.84,42.52,42.52,0,0,0,6,6.4A24.26,24.26,0,0,0,106,78.2a6,6,0,0,0,2.51,1h.17a9.47,9.47,0,0,0,3.46-.93,26.06,26.06,0,0,0,6.31-4.06,15.73,15.73,0,0,0,4.5-5.87A44.73,44.73,0,0,0,125,59c.2-1.48.33-2.81.41-3.8s.12-1.66.12-1.83v0h0s0-.22,0-.5c0-.84.16-2.58.16-4.66a41.9,41.9,0,0,0-.44-6.42,12.71,12.71,0,0,0-1.9-5.43A7.5,7.5,0,0,0,119.32,34a23.1,23.1,0,0,0-6.14-.74c-4.76,0-10,1.06-13.51,2.9a18.61,18.61,0,0,0-6.18,4.93,10.92,10.92,0,0,0-2.33,6.75,14.19,14.19,0,0,0,1,5l.23-.09-.24,0,.24,0,.22-.08a14.19,14.19,0,0,1-.94-4.82,10.4,10.4,0,0,1,2.24-6.45,18.07,18.07,0,0,1,6-4.8c3.37-1.79,8.6-2.84,13.29-2.84a22.41,22.41,0,0,1,6,.72,7.05,7.05,0,0,1,3.8,2.21,12.34,12.34,0,0,1,1.81,5.22,40.82,40.82,0,0,1,.43,6.35c0,1.37,0,2.6-.1,3.51q0,.69-.06,1.11t0,.54h0c0,.14,0,.8-.12,1.79-.24,3-.94,8.93-2.47,13-1,2.63-3.61,5.3-6.41,7.27a25.38,25.38,0,0,1-4.14,2.38,8.83,8.83,0,0,1-3.27.88h-.14a3.91,3.91,0,0,1-1.41-.43A29.11,29.11,0,0,1,100,72.47a36.71,36.71,0,0,1-3.14-3.79,10.87,10.87,0,0,1-1.68-3.15c-.53-2-1.17-5.21-1.67-7.92-.25-1.35-.47-2.59-.62-3.48s-.25-1.44-.25-1.44v0l-.23.09Z"/><path id="Path_83" data-name="Path 83" class="cls-4" d="M103.84,60.32c0,1.06-.46,1.92-1.06,1.92s-1.1-.86-1.11-1.92.45-1.92,1-1.92,1.1.86,1.12,1.92Z"/><path id="Path_84" data-name="Path 84" class="cls-4" d="M116.7,60.32c0,1.06-.45,1.92-1,1.92s-1.1-.86-1.12-1.92.46-1.92,1.06-1.92S116.69,59.26,116.7,60.32Z"/><path id="Path_85" data-name="Path 85" class="cls-5" d="M104.41,53.4l-6.3,3.18a.73.73,0,0,0-.32,1,.74.74,0,0,0,1,.32l6.3-3.18a.72.72,0,0,0,.32-1,.73.73,0,0,0-1-.33"/><path id="Path_86" data-name="Path 86" class="cls-5" d="M114.06,54.85l6.24,3.67a.73.73,0,1,0,.74-1.25l-6.24-3.68a.73.73,0,0,0-.74,1.26"/><path id="Path_87" data-name="Path 87" class="cls-4" d="M111.52,66.84v0a1.66,1.66,0,0,1-.57,1.26,2.18,2.18,0,0,1-1.44.54,2.21,2.21,0,0,1-1.46-.55,1.74,1.74,0,0,1-.61-1.28.24.24,0,1,0-.48,0h0a2.22,2.22,0,0,0,.77,1.64,2.66,2.66,0,0,0,1.79.66,2.62,2.62,0,0,0,1.75-.65,2.15,2.15,0,0,0,.74-1.62v0a.23.23,0,0,0-.24-.23.23.23,0,0,0-.24.24Z"/><path id="Path_88" data-name="Path 88" class="cls-4" d="M108,73.15h0a3.48,3.48,0,0,1,1.42-.3,3.31,3.31,0,0,1,1.39.3.24.24,0,0,0,.32-.12.24.24,0,0,0-.12-.32,3.8,3.8,0,0,0-1.59-.35,4.07,4.07,0,0,0-1.65.35.24.24,0,0,0-.1.33.24.24,0,0,0,.32.11h0Z"/><path id="Path_89" data-name="Path 89" class="cls-4" d="M99.31,62.39l2.55.48a.24.24,0,0,0,.09-.48l-2.55-.48a.25.25,0,0,0-.28.21.26.26,0,0,0,.19.27"/><path id="Path_90" data-name="Path 90" class="cls-4" d="M119.52,61.92l-2.77.84a.24.24,0,0,0-.14.32.24.24,0,0,0,.28.15l2.77-.85a.24.24,0,0,0,.17-.3.25.25,0,0,0-.31-.16"/><path id="Path_91" data-name="Path 91" class="cls-5" d="M101.2,20.31s-8.62,4-11.34,12,.93,16.37,1.46,18.54.89,3.34.89,3.34A36,36,0,0,1,96.49,50c1.82-1.33,5.48-2,7.65-2.5s9.65-2.34,11.62-4.35a37.45,37.45,0,0,0,2.63-2.84s1.64,8.52,3.85,11A12.38,12.38,0,0,1,125,56.56s1.45-3.34,2.58-6.35,1.9-16.87-1.2-22.72S110.15,16,101.2,20.31Z"/><path id="Path_92" data-name="Path 92" class="cls-4" d="M101.2,20.31l-.1-.22a25.87,25.87,0,0,0-4.7,3,20.47,20.47,0,0,0-6.76,9.13,19.79,19.79,0,0,0-1,6.43,30.31,30.31,0,0,0,1.09,7.69c.57,2.14,1.19,3.79,1.37,4.56.54,2.17.89,3.35.89,3.35l.13.42.29-.33s.15-.18.41-.46a30.26,30.26,0,0,1,3.83-3.68,11.63,11.63,0,0,1,3.61-1.53c1.4-.39,2.86-.69,3.94-.94s3.5-.83,5.9-1.61a34.48,34.48,0,0,0,3.43-1.29,8.48,8.48,0,0,0,2.41-1.5c2-2,2.64-2.85,2.65-2.86l-.19-.15-.24,0s.41,2.14,1.1,4.6a34.86,34.86,0,0,0,1.23,3.7,10.22,10.22,0,0,0,1.58,2.85A12.81,12.81,0,0,1,124.22,55a11.61,11.61,0,0,1,.42,1.17l.09.32,0,.09v0l.15.76.31-.71s1.45-3.34,2.57-6.36a17.37,17.37,0,0,0,.71-3.79,58.18,58.18,0,0,0,.3-5.91,49.76,49.76,0,0,0-.48-7.22,19.32,19.32,0,0,0-1.73-6c-1.21-2.27-3.83-4.47-7.12-6.11a25.49,25.49,0,0,0-11.1-2.74,16.75,16.75,0,0,0-7.27,1.56l.11.22-.1-.22.1.22.1.22A16.12,16.12,0,0,1,108.38,19a24.83,24.83,0,0,1,10.88,2.68c3.22,1.61,5.78,3.77,6.9,5.91a18.83,18.83,0,0,1,1.68,5.84,50.13,50.13,0,0,1,.48,7.15,57.48,57.48,0,0,1-.29,5.86,18.39,18.39,0,0,1-.68,3.67c-.56,1.5-1.2,3.08-1.7,4.29-.26.6-.47,1.12-.62,1.48l-.25.56.22.1.24,0a12.65,12.65,0,0,0-2.81-5.3,10,10,0,0,1-1.49-2.71,43.51,43.51,0,0,1-1.67-5.38c-.2-.81-.36-1.52-.47-2s-.16-.8-.16-.8l-.1-.52-.33.42,0,0c-.14.18-.86,1-2.58,2.79a8,8,0,0,1-2.27,1.4,57.15,57.15,0,0,1-9.24,2.87c-1.07.25-2.53.54-4,.94a12.32,12.32,0,0,0-3.77,1.6,24.39,24.39,0,0,0-2.85,2.62c-.85.88-1.47,1.59-1.47,1.6l.18.16.24-.07a1.8,1.8,0,0,1-.07-.22c-.12-.42-.42-1.49-.82-3.11-.2-.83-.81-2.44-1.37-4.57a29.31,29.31,0,0,1-1.08-7.56,19.64,19.64,0,0,1,1-6.28,20,20,0,0,1,6.61-8.91A28.73,28.73,0,0,1,100,21.26c.42-.24.76-.43,1-.55l.27-.14.09-.05h0l-.1-.21Z"/><path id="Path_93" data-name="Path 93" class="cls-5" d="M118.39,40.35s-6.74,7.19-14.54,10.53-16,12.2-15.27,16.71,6.28,6.18,5.61,6.18-8.88-1.5-8.81-8.19,7-10.69,10.66-12.36,19-10.69,22.35-12.87Z"/><path id="Path_94" data-name="Path 94" class="cls-4" d="M118.39,40.35l-.18-.16-.3.31c-1.38,1.41-7.38,7.26-14.15,10.16a33.61,33.61,0,0,0-10.54,7.56,25.23,25.23,0,0,0-3.55,4.62A8.74,8.74,0,0,0,88.3,67a3.35,3.35,0,0,0,0,.63,7.56,7.56,0,0,0,3.18,4.77,14.9,14.9,0,0,0,1.82,1.13l.57.3.14.08h0l.1-.12-.12.09,0,0,.1-.12-.13.09.18-.13H94a.2.2,0,0,0,0,.13l.18-.13h0l-.15-.17a.21.21,0,0,0-.08.17h.23l-.15-.17.13.15,0-.2a.14.14,0,0,0-.1,0l.14.15,0-.2,0,.1v-.1h0l0,.1v-.1h0a4.34,4.34,0,0,1-.52-.08,13.28,13.28,0,0,1-4.79-2,7.86,7.86,0,0,1-2.3-2.33,6.57,6.57,0,0,1-1-3.51v-.08a10.91,10.91,0,0,1,3.91-7.88,25.6,25.6,0,0,1,6.61-4.26c1.85-.85,6.6-3.52,11.33-6.26s9.39-5.53,11.06-6.62l-.14-.2-.17-.17.17.17-.13-.2c-1.64,1.08-6.32,3.88-11,6.61S97.73,52.18,95.93,53a26.1,26.1,0,0,0-6.74,4.35,11.38,11.38,0,0,0-4.06,8.23v.08a7,7,0,0,0,1.33,4.2A10.18,10.18,0,0,0,91,73.17a14.41,14.41,0,0,0,2,.66l.71.14a2.71,2.71,0,0,0,.41,0,.22.22,0,0,0,.11,0l.1-.06a.23.23,0,0,0,.08-.18.24.24,0,0,0,0-.15.34.34,0,0,0-.09-.08,2.71,2.71,0,0,0-.37-.21,14.09,14.09,0,0,1-2.82-1.84,6.69,6.69,0,0,1-2.35-3.93,3.39,3.39,0,0,1,0-.55,8.24,8.24,0,0,1,1.31-3.91c2.52-4.38,8.32-9.61,13.86-12,7.86-3.38,14.6-10.58,14.62-10.59L120,39l-1.71,1.12.13.2Z"/><path id="Path_95" data-name="Path 95" class="cls-4" d="M120,45.37s2.3,8,3.68,10.69,3.82,9,2,13.53-3.09,5.18-3.09,5.18,6-4.18,5.84-11S121.05,50,120,45.37Z"/><path id="Path_96" data-name="Path 96" class="cls-5" d="M120,45.37l-.23.06s.57,2,1.32,4.35a51.53,51.53,0,0,0,2.37,6.39,23.8,23.8,0,0,1,2.65,9.8,9.89,9.89,0,0,1-.6,3.53,18.23,18.23,0,0,1-2.18,4.23,5,5,0,0,1-.62.68l-.15.12,0,0h0l.06.1-.06-.1h0l.06.1,0-.1.11.22.14.2a16.21,16.21,0,0,0,3-2.94,13.18,13.18,0,0,0,3-8.1v-.19c-.06-3.51-1.94-7-3.91-10.13-1-1.58-2-3.09-2.84-4.49a14.41,14.41,0,0,1-1.73-3.81l-.24,0-.23.07.23-.07-.23.06a14.37,14.37,0,0,0,1.79,3.95c1.26,2.12,2.91,4.46,4.26,6.9a16.44,16.44,0,0,1,2.42,7.48v.18a12.77,12.77,0,0,1-2.87,7.8,16.49,16.49,0,0,1-2,2.11c-.27.24-.49.43-.65.55l-.18.14-.06,0,.25.42c.08,0,1.43-.77,3.21-5.31a10.2,10.2,0,0,0,.63-3.71,24,24,0,0,0-2.7-10,52.49,52.49,0,0,1-2.34-6.31c-.37-1.17-.7-2.25-.94-3s-.38-1.29-.38-1.29l-.47.12.24-.05Z"/><path id="Path_97" data-name="Path 97" class="cls-5" d="M118.78,22.51c.07,4.57-4.32,8.27-9.81,8.27s-10-3.7-10.07-8.27,4.32-8.27,9.81-8.27S118.71,17.94,118.78,22.51Z"/><path id="Path_98" data-name="Path 98" class="cls-4" d="M118.77,22.51h-.24v.11a7.29,7.29,0,0,1-2.77,5.58,10.63,10.63,0,0,1-6.8,2.33,10.9,10.9,0,0,1-6.91-2.36,7.53,7.53,0,0,1-2.91-5.67v-.1a7.23,7.23,0,0,1,2.77-5.59,10.62,10.62,0,0,1,6.79-2.33,10.94,10.94,0,0,1,6.92,2.37,7.49,7.49,0,0,1,2.91,5.66H119a8,8,0,0,0-3.09-6A11.4,11.4,0,0,0,108.7,14a11.15,11.15,0,0,0-7.1,2.44,7.8,7.8,0,0,0-2.95,6v.12a8,8,0,0,0,3.1,6A11.46,11.46,0,0,0,109,31a11.14,11.14,0,0,0,7.1-2.45,7.78,7.78,0,0,0,3-6v-.11Z"/><path id="Path_99" data-name="Path 99" class="cls-4" d="M114.82,15.58c.05,2.67-2.57,4.84-5.85,4.84s-6-2.17-6-4.84,2.58-4.85,5.86-4.85S114.78,12.9,114.82,15.58Z"/><path id="Path_100" data-name="Path 100" class="cls-4" d="M114.82,15.58h-.24v.06a4.13,4.13,0,0,1-1.62,3.2,6.34,6.34,0,0,1-4,1.34,6.43,6.43,0,0,1-4.06-1.37,4.25,4.25,0,0,1-1.7-3.24v-.06a4.13,4.13,0,0,1,1.62-3.2,6.3,6.3,0,0,1,4-1.34,6.43,6.43,0,0,1,4.06,1.37,4.25,4.25,0,0,1,1.7,3.24h.49A4.76,4.76,0,0,0,113.18,12a6.89,6.89,0,0,0-4.36-1.48,6.76,6.76,0,0,0-4.3,1.46,4.58,4.58,0,0,0-1.8,3.57v.06a4.72,4.72,0,0,0,1.88,3.61A6.9,6.9,0,0,0,109,20.67a6.8,6.8,0,0,0,4.3-1.46,4.62,4.62,0,0,0,1.8-3.57v-.06Z"/><path id="Path_101" data-name="Path 101" class="cls-6" d="M59.59,144.61,60,171.89S57.86,183.81,59,184.71s4.76,4.16,5.5,5.06a5.44,5.44,0,0,0,3.27,1.45c1.09.18,4.15-.73,3.58-2.35s-1.26.36-1.81-.18a18,18,0,0,1-1.48-2l1-4s.24,3.79,1.15,4,1.08-.54,1-2A29.52,29.52,0,0,1,71,180.2a13.56,13.56,0,0,0-1.54-6.15c-.56-1.44-1.69-4.15-1.89-5.06s5.79-22.4,5.79-22.4-3.93,2.53-13.76-2Z"/><path id="Path_102" data-name="Path 102" class="cls-4" d="M59.59,144.61h-.24l.43,27.28H60l-.24,0s-.34,1.9-.69,4.24A57.3,57.3,0,0,0,58.4,183a7.67,7.67,0,0,0,.08,1.17,2.17,2.17,0,0,0,.11.42.74.74,0,0,0,.21.31l0,0,0,0c.54.45,1.74,1.49,2.88,2.52.57.52,1.13,1,1.59,1.48a13.74,13.74,0,0,1,1,1A3.88,3.88,0,0,0,65.88,191a9.55,9.55,0,0,0,1.82.47h0a2,2,0,0,0,.35,0,5.44,5.44,0,0,0,2.2-.54,3.23,3.23,0,0,0,1-.68,1.47,1.47,0,0,0,.42-1,1.5,1.5,0,0,0-.08-.47,1.61,1.61,0,0,0-.32-.59.62.62,0,0,0-.45-.23.76.76,0,0,0-.39.13l-.43.31a.44.44,0,0,1-.24.13l0,0h0a11.54,11.54,0,0,1-.92-1.17c-.15-.21-.28-.41-.37-.55a2.69,2.69,0,0,1-.15-.23l-.2.13.23.06,1-4-.23-.06h-.24s.06,1,.23,1.95a7.6,7.6,0,0,0,.37,1.4,2.1,2.1,0,0,0,.29.53.74.74,0,0,0,.45.32h0a1.53,1.53,0,0,0,.3,0,.89.89,0,0,0,.54-.17,1.17,1.17,0,0,0,.41-.73,5.39,5.39,0,0,0,.09-1.13v-.23a9.92,9.92,0,0,0-.15-1.54,12.92,12.92,0,0,1-.13-1.86c0-.32,0-.68,0-1.1,0-.16,0-.32,0-.48A14.4,14.4,0,0,0,69.68,174c-.28-.72-.7-1.76-1.08-2.73a20.64,20.64,0,0,1-.79-2.29h0a3.62,3.62,0,0,1,.06-.46c.31-1.75,1.75-7.22,3.1-12.23.68-2.51,1.33-4.91,1.82-6.68.24-.88.44-1.61.59-2.12l.22-.79.17-.61-.54.34h0a6.84,6.84,0,0,1-3.45.67c-2.18,0-5.47-.55-10.08-2.67l-.35-.16v.38h.24l-.1.22c4.66,2.14,8,2.72,10.28,2.72a7.33,7.33,0,0,0,3.71-.75l-.13-.2-.23-.06s-1.45,5.2-2.9,10.6c-.73,2.7-1.45,5.44-2,7.61-.27,1.08-.5,2-.66,2.74-.08.36-.14.67-.19.91a4.86,4.86,0,0,0-.07.55v.11a22,22,0,0,0,.82,2.36c.38,1,.8,2,1.08,2.73a14.07,14.07,0,0,1,1.54,5.6c0,.14,0,.3,0,.45,0,.42,0,.8,0,1.13a12.39,12.39,0,0,0,.13,1.92,10.45,10.45,0,0,1,.15,1.48V185a3.94,3.94,0,0,1-.14,1.23.51.51,0,0,1-.17.24.43.43,0,0,1-.25.07.76.76,0,0,1-.21,0h0a.29.29,0,0,1-.16-.13,2.64,2.64,0,0,1-.37-.86,13.73,13.73,0,0,1-.33-1.81c0-.27,0-.51-.07-.68s0-.27,0-.27l-.1-1.52-1.43,5.55.06.09s.24.37.54.8a9.72,9.72,0,0,0,1,1.23h0a.52.52,0,0,0,.39.17.74.74,0,0,0,.38-.12c.16-.1.29-.23.41-.32a.64.64,0,0,1,.26-.13s0,0,.1.06a1.46,1.46,0,0,1,.22.43,1.13,1.13,0,0,1,0,.32,1,1,0,0,1-.3.67,3.37,3.37,0,0,1-1.31.78,4.73,4.73,0,0,1-1.48.28,1.23,1.23,0,0,1-.27,0h0a9.34,9.34,0,0,1-1.73-.44,3.36,3.36,0,0,1-1.4-.92,12.88,12.88,0,0,0-1-1.06c-1.4-1.35-3.67-3.35-4.5-4h0a.37.37,0,0,1-.07-.12,4.5,4.5,0,0,1-.16-1.41,56,56,0,0,1,.69-6.84c.17-1.17.34-2.23.47-3l.21-1.24v0l-.43-27.31h-.24l-.1.22.1-.22Z"/><path id="Path_103" data-name="Path 103" class="cls-7" d="M71.61,82.46s-5.17,4.15-6,10.48-1,15.35-1.7,18.24-3.39,25.66-3.39,25.66a23.54,23.54,0,0,0,4.75,3.61c2.19,1.09,7,.18,7.77,0a15,15,0,0,0,2.15-.9s3-17.71,3.1-20.78a92.33,92.33,0,0,1,1.3-9.21s-.13-19.87-8-27.1Z"/><path id="Path_104" data-name="Path 104" class="cls-4" d="M71.62,82.46l-.16-.19s-5.24,4.2-6.06,10.64c-.4,3.17-.66,7-.9,10.42a68,68,0,0,1-.8,7.8c-.18.75-.47,2.7-.82,5.25-1.05,7.63-2.58,20.43-2.58,20.43v.12l.08.08a24.13,24.13,0,0,0,4.82,3.66h0a7.66,7.66,0,0,0,3.21.55,24.31,24.31,0,0,0,4.73-.53h0a8.58,8.58,0,0,0,1.38-.54c.46-.2.82-.38.82-.38l.11-.06,0-.12s.74-4.43,1.5-9.24c.38-2.41.76-4.91,1.06-7s.51-3.78.54-4.57q.21-2.88.7-5.73c.16-1,.3-1.82.42-2.44l.18-1v0a73.67,73.67,0,0,0-1-10.88c-1-5.89-3-12.7-7-16.4l-.15-.14-.17.13.16.19-.17.18c3.87,3.53,5.88,10.27,6.89,16.12.43,2.52.73,5.06.91,7.6.06,1,.1,1.79.12,2.35s0,.86,0,.86h.24l-.24,0a93.11,93.11,0,0,0-1.3,9.25c0,.75-.24,2.43-.54,4.52-.44,3.13-1.08,7.19-1.61,10.47-.27,1.63-.5,3.07-.67,4.11s-.28,1.65-.28,1.65l.24,0-.11-.22-.23.12a13.87,13.87,0,0,1-1.87.77h0a23.84,23.84,0,0,1-4.61.51,7.16,7.16,0,0,1-3-.5l-.07,0,.07,0a17.51,17.51,0,0,1-3.15-2.18c-.45-.38-.84-.73-1.11-1s-.24-.23-.32-.3l-.11-.11-.17.18.24,0s0-.35.12-1c.26-2.2.93-7.73,1.61-13,.34-2.65.68-5.25,1-7.33s.54-3.67.68-4.28a65.14,65.14,0,0,0,.81-7.88c.24-3.41.5-7.25.9-10.4a15.91,15.91,0,0,1,3.24-7.49A20.43,20.43,0,0,1,71,83.38c.24-.24.45-.42.59-.54l.16-.14.05,0-.15-.19-.16.18.16-.18Z"/><path id="Path_105" data-name="Path 105" class="cls-4" d="M74.8,117c-.4.7-.75,1.32-1,1.79l.43.22c.23-.46.57-1.07,1-1.77L74.8,117Z"/><path id="Path_106" data-name="Path 106" class="cls-4" d="M79.43,109.43s-1.91,3-3.57,5.77l.42.25c.83-1.38,1.71-2.82,2.4-3.91.34-.55.63-1,.84-1.34l.32-.51-.41-.26Z"/><path id="Path_107" data-name="Path 107" class="cls-4" d="M75.09,113.4l-3.78,6.3.41.25,3.78-6.3"/><path id="Path_108" data-name="Path 108" class="cls-6" d="M60,133.22s3.67,3.26,7.11,4.34a14.56,14.56,0,0,0,7.6.54c1.26-.36,1.8-.9,2,.54s-1,6.5-1,8-.51,2.17-3.39,2.71-9-.54-10.87-1.8-3.12-3.08-3-4.7.82-5.24,1-6.5-.22-2.71.5-3.07Z"/><path id="Path_109" data-name="Path 109" class="cls-4" d="M60,133.22l-.16.19s3.68,3.27,7.2,4.38a17.28,17.28,0,0,0,5.19.83,9.92,9.92,0,0,0,2.55-.28h0l.82-.28a1.46,1.46,0,0,1,.5-.12.16.16,0,0,1,.1,0s.08,0,.13.16a2.17,2.17,0,0,1,.13.56,2.3,2.3,0,0,1,0,.37,29.67,29.67,0,0,1-.49,3.87,31.65,31.65,0,0,0-.49,3.63v.13a2.41,2.41,0,0,1-.12.84,1.57,1.57,0,0,1-.83.87,8,8,0,0,1-2.24.67,9.93,9.93,0,0,1-1.8.14,25.52,25.52,0,0,1-5.08-.58,20.59,20.59,0,0,1-2.27-.61,6.72,6.72,0,0,1-1.54-.71,8.28,8.28,0,0,1-2.07-2,3.88,3.88,0,0,1-.8-2.22,1.93,1.93,0,0,1,0-.24c.07-.8.28-2.11.49-3.37s.41-2.48.49-3.13h0a8.65,8.65,0,0,0,.05-.88c0-.29,0-.56,0-.81a3.21,3.21,0,0,1,.07-.82.51.51,0,0,1,.25-.37l-.11-.22-.16.18.16-.18-.11-.21a1,1,0,0,0-.5.68,4.22,4.22,0,0,0-.08.94c0,.26,0,.53,0,.81a7.52,7.52,0,0,1,0,.82h0c-.08.62-.28,1.85-.49,3.11s-.41,2.58-.49,3.4h0a2.81,2.81,0,0,0,0,.29,4.4,4.4,0,0,0,.88,2.49,8.77,8.77,0,0,0,2.2,2.14,7,7,0,0,0,1.66.77,25.81,25.81,0,0,0,7.5,1.22,10.86,10.86,0,0,0,1.89-.14,6.32,6.32,0,0,0,2.87-1,1.79,1.79,0,0,0,.57-.81,2.86,2.86,0,0,0,.15-1v-.13a30.76,30.76,0,0,1,.49-3.56,30.73,30.73,0,0,0,.49-3.94c0-.15,0-.3,0-.44a2.27,2.27,0,0,0-.26-.85.67.67,0,0,0-.59-.31,1.86,1.86,0,0,0-.65.15c-.24.08-.5.18-.8.27h0a9.79,9.79,0,0,1-2.41.27,17.26,17.26,0,0,1-5-.81,18.7,18.7,0,0,1-4.79-2.55c-.66-.47-1.23-.9-1.62-1.22l-.46-.38-.16-.14-.12-.11-.15.08.11.21Z"/></g></g></g></svg>